<svg width="92" height="102" viewBox="0 0 92 102" fill="none" xmlns="http://www.w3.org/2000/svg">
<g clip-path="url(#clip0_17231_20523)">
<path d="M72.6668 36L52.6668 13.5H26.0002C24.2321 13.5 22.5364 14.2902 21.2861 15.6967C20.0359 17.1032 19.3335 19.0109 19.3335 21V81C19.3335 82.9891 20.0359 84.8968 21.2861 86.3033C22.5364 87.7098 24.2321 88.5 26.0002 88.5H66.0002C67.7683 88.5 69.464 87.7098 70.7142 86.3033C71.9644 84.8968 72.6668 82.9891 72.6668 81V36ZM52.6668 13.5V36H72.6668M46.0002 73.5V51M36.0002 62.25H56.0002" stroke="#1C851C" stroke-width="4" stroke-linecap="round" stroke-linejoin="round"/>
</g>
<defs>
<clipPath id="clip0_17231_20523">
<path d="M0 8C0 3.58172 3.58172 0 8 0H84C88.4183 0 92 3.58172 92 8V94C92 98.4183 88.4183 102 84 102H8C3.58172 102 0 98.4183 0 94V8Z" fill="white"/>
</clipPath>
</defs>
</svg>
