<svg width="420" height="223" viewBox="0 0 420 223" fill="none" xmlns="http://www.w3.org/2000/svg">
<g filter="url(#filter0_f_9416_20481)">
<path d="M237.059 200.388C249.508 198.443 253.918 201.198 254.566 202.819C257.289 209.628 275.768 214.686 278.881 209.628C281.312 209.628 297.362 207.196 300.766 211.087C304.17 214.977 277.424 218.868 271.588 218.868C265.752 218.868 250.189 217.409 231.709 218.868C213.229 220.327 206.421 209.142 178.701 211.087C150.981 213.032 151.468 208.655 151.954 207.196C152.44 205.737 177.729 202.819 189.4 202.819C201.072 202.819 221.497 202.819 237.059 200.388Z" fill="#E7E7E7"/>
</g>
<path d="M239.004 157.594C244.062 158.372 245.813 155.973 248.73 154.189C240.949 152.73 236.086 151.271 231.223 145.436C229.23 143.044 226.846 136.196 226.846 128.901C226.846 123.209 228.792 112.366 237.545 91.9412C244.963 74.6322 239.336 57.1336 236.596 49.7293C236.396 47.954 236.071 46.6982 235.6 46.2272C234.93 45.5572 235.554 46.9132 236.596 49.7293C237.43 57.1187 236.102 73.5096 234.141 79.7834C231.82 87.2102 224.564 96.8263 220.038 110.907C215.661 124.524 215.661 138.627 220.038 145.436C225.948 154.629 232.682 156.621 239.004 157.594Z" fill="#DCDCDC" stroke="#DCDCDC"/>
<path d="M189.4 160.998C193.291 162.165 205.286 162.781 210.798 162.943C207.394 161.484 184.537 158.08 171.893 150.299C159.249 142.518 154.386 135.223 147.091 124.038C141.255 115.09 137.851 94.8592 138.337 89.0234C137.04 92.9139 135.419 99.236 135.419 107.503C135.419 115.771 135.419 119.661 141.255 130.36C145.322 137.816 152.44 145.436 160.221 150.299C167.825 155.052 184.537 159.539 189.4 160.998Z" fill="#DCDCDC"/>
<path d="M126.179 58.3841C122.454 53.2621 117.426 42.3357 114.022 35.041C115.481 50.6031 118.885 71.0282 132.015 79.7819L135.419 67.1377C133.15 65.5167 130.07 63.7335 126.179 58.3841Z" fill="#DCDCDC"/>
<path d="M239.49 112.853C248.244 115.771 254.728 113.988 262.347 114.312C257.484 116.257 249.861 119.501 247.757 120.148C241.435 122.093 227.818 124.038 227.818 120.148C227.818 117.814 230.412 110.26 231.709 107.018C231.709 107.018 233.654 110.908 239.49 112.853Z" fill="#DCDCDC"/>
<path d="M187.708 63.7815C187.624 63.5645 187.537 63.385 187.454 63.248C187.487 63.3945 187.575 63.5739 187.708 63.7815C188.118 64.8485 188.424 66.8206 187.454 69.0838C185.996 72.488 175.297 78.8101 169.948 81.2417C168.975 81.6838 189.886 80.269 191.832 77.3511C193.388 75.0168 192.642 75.568 194.263 75.8922L198.154 79.7827C197.615 77.189 193.782 72.3346 191.832 69.0838C190.592 67.0183 188.455 64.9527 187.708 63.7815Z" fill="#DCDCDC"/>
<path d="M269.155 150.785C266.432 151.563 254.242 153.216 249.216 154.189C252.296 152.892 261.18 150.493 266.238 149.326C272.56 147.867 290.553 140.086 294.443 138.141C296.388 139.113 298.82 138.141 299.793 139.113C300.765 140.086 295.902 143.49 294.443 143.976C292.984 144.463 272.56 149.812 269.155 150.785Z" fill="#DCDCDC"/>
<path d="M302.225 106.043C302.225 104.486 300.604 99.2343 299.793 96.8027C298.82 100.207 288.2 112.757 285.69 115.769C283.258 118.687 242.894 151.27 243.867 150.784C244.84 150.297 263.32 139.598 266.724 136.68C268.712 134.976 286.176 123.064 289.58 119.659C292.353 116.887 302.225 107.988 302.225 106.043Z" fill="#DCDCDC"/>
<path d="M272.074 105.072L280.341 89.0234C279.044 89.3476 274.7 91.455 273.532 91.455C272.365 91.455 269.48 93.0761 268.183 93.8866C267.372 95.1834 265.46 100.5 264.292 101.668C263.125 102.835 263.806 101.992 264.292 102.64L272.074 105.072Z" fill="#DCDCDC"/>
<path d="M256.025 133.763C260.564 126.955 265.589 117.715 267.21 113.824C264.779 114.473 261.493 115.165 259.429 117.228C257.484 119.174 256.512 124.523 252.135 134.736C251.503 136.21 246.299 145.597 243.867 149.811C247.92 144.786 253.691 137.265 256.025 133.763Z" fill="#DCDCDC"/>
<path d="M186.968 89.5088C188.914 89.1198 191.021 89.6709 191.832 89.9951C190.373 91.1299 187.357 93.4967 186.968 93.8857C186.579 94.2748 182.592 95.9931 180.646 96.8036L180.16 94.3721C180.16 93.5615 180.452 91.8432 181.619 91.4542C183.078 90.9679 184.537 89.9951 186.968 89.5088Z" fill="#DCDCDC"/>
<path d="M207.88 30.6659C212.548 31.0552 214.039 32.7733 214.687 33.5838C215.174 33.0973 214.007 31.2497 213.229 29.6933C212.256 27.7478 207.393 27.2617 204.962 27.2617C200.099 27.2617 195.45 29.8179 194.263 30.6659C190.859 33.0975 190.372 36.0154 189.886 36.988C189.4 37.9606 188.913 40.3922 189.4 40.8785C189.886 41.3648 191.832 40.8785 191.832 40.3922C191.832 39.9059 192.318 37.4743 194.749 35.0427C197.181 32.6112 202.044 30.1794 207.88 30.6659Z" fill="#DCDCDC"/>
<path d="M205.935 6.83576C203.99 4.11241 197.019 1.81052 193.777 1C193.129 1.48631 193.388 2.16715 195.722 2.94525C198.64 3.91788 205.935 8.78102 205.935 13.6442C205.935 19.2551 205.773 23.3704 204.476 24.8294C206.745 26.4504 212.743 28.7199 212.743 24.8294C212.743 19.9662 208.366 10.24 205.935 6.83576Z" fill="#DCDCDC"/>
<path d="M151.277 40.3897C148.521 40.2276 140.967 37.9581 132.797 30.1771C124.627 22.3961 117.721 12.3456 115.29 8.29297C115.128 18.8298 115.192 40.3897 116.749 42.3349C118.694 44.7665 112.372 33.095 112.372 30.1771C112.372 27.2592 116.262 62.2738 124.53 72.0001C131.144 79.7811 132.797 80.4295 132.797 79.7811" stroke="#141416" stroke-width="2" stroke-linecap="round" stroke-linejoin="round"/>
<path d="M135.715 52.5495C132.311 50.4421 124.627 43.115 121.125 30.6654C117.624 18.2157 115.776 10.8886 115.29 8.78125" stroke="#141416" stroke-width="2" stroke-linecap="round" stroke-linejoin="round"/>
<path d="M286.475 107.988C278.856 109.771 261.77 114.31 254.378 118.201C246.986 122.091 233.467 122.74 227.631 122.578" stroke="#141416" stroke-width="2" stroke-linecap="round" stroke-linejoin="round"/>
<path d="M238.33 89.9941C247.408 95.992 269.746 107.988 286.475 107.988" stroke="#141416" stroke-width="2" stroke-linecap="round" stroke-linejoin="round"/>
<path d="M236.385 107.016C249.839 108.475 278.402 110.809 285.016 108.475" stroke="#141416" stroke-width="2" stroke-linecap="round" stroke-linejoin="round"/>
<path d="M249.029 113.338C253.568 113.824 264.299 114.31 270.913 112.365" stroke="#141416" stroke-width="2" stroke-linecap="round" stroke-linejoin="round"/>
<path d="M249.702 154.189C262.671 151.92 284.042 147.38 292.309 144.463C296.2 143.089 301.549 142.031 300.09 134.736C298.631 127.442 297.174 122.092 294.741 121.606C292.309 121.12 280.316 131.831 273.344 136.682C262.158 144.463 250.973 149.812 247.083 150.785C243.97 151.563 238.978 151.109 236.87 150.785" stroke="#141416" stroke-width="2" stroke-linecap="round" stroke-linejoin="round"/>
<path d="M297.174 123.065C299.606 120.958 304.177 115.673 303.01 111.394C300.676 93.1083 294.58 83.998 291.824 81.7285C288.906 83.6738 283.557 97.2906 282.098 99.7221C280.65 102.136 279.256 104.565 277.909 106.963M240.275 152.244C241.085 151.596 243.095 150.104 244.652 149.326C246.597 148.354 255.641 139.309 261.186 133.764C265.84 129.111 270.546 120.242 275.964 110.454" stroke="#141416" stroke-width="2" stroke-linecap="round" stroke-linejoin="round"/>
<path d="M259.429 115.77C256.673 124.199 249.126 143.781 241.734 150.784" stroke="#141416" stroke-width="2"/>
<path d="M287.635 87.5645C282.934 88.6992 269.94 91.9413 267.995 93.8865C266.049 95.8318 264.59 100.533 263.618 102.154" stroke="#141416" stroke-width="2" stroke-linecap="round" stroke-linejoin="round"/>
<path d="M202.343 162.942C223.741 165.277 243.355 157.755 250.488 153.703C248.056 152.406 241.21 153.497 236.871 150.785C229.09 145.922 220.336 134.736 232.981 103.612C245.625 72.4881 240.762 54.4945 234.926 45.2546C229.811 37.1554 212.069 25.3157 195.534 21.9115C179 18.5073 164.41 28.3726 156.629 35.042C136.691 54.4946 131.827 78.3239 130.855 94.8586C129.882 111.393 142.202 133.439 143.013 134.25C159.061 155.161 175.596 160.025 202.343 162.942Z" stroke="#141416" stroke-width="2" stroke-linecap="round" stroke-linejoin="round"/>
<path d="M286.96 212.06C279.179 207.035 262.547 196.984 258.268 196.984" stroke="#141416" stroke-width="2" stroke-linecap="round" stroke-linejoin="round"/>
<path d="M277.233 213.518C255.511 194.551 209.247 155.257 197.964 149.811" stroke="#141416" stroke-width="2" stroke-linecap="round" stroke-linejoin="round"/>
<path d="M271.884 215.461C259.726 200.386 232.492 168.872 220.821 163.426" stroke="#141416" stroke-width="2" stroke-linecap="round" stroke-linejoin="round"/>
<path d="M253.404 189.201C254.377 191.146 256.322 195.231 256.322 196.01" stroke="#141416" stroke-width="2" stroke-linecap="round" stroke-linejoin="round"/>
<path d="M223.548 38.9326C223.548 37.4737 220.891 29.7562 220.63 26.3621C220.144 20.04 222.065 9.24997 223.548 6.42328C223.653 6.22355 223.753 6.03626 223.848 5.86328C222.348 8.13782 219.124 13.8039 218.233 18.2719C217.606 21.9116 217.006 26.3508 217.606 29.2063C218.116 31.6331 219.551 35.0421 221.01 36.9874L221.027 37.0097C221.477 37.6102 223.548 40.3728 223.548 38.9326Z" fill="#DCDCDC"/>
<path d="M202.531 22.398C205.55 23.1528 209.339 26.7748 209.825 26.7748C209.339 25.3159 205.935 22.4952 203.989 20.9389C201.558 18.9936 200.099 19.4801 198.154 18.9938C196.208 18.5075 190.859 19.9664 189.297 19.9664C188.21 19.9664 181.03 20.939 180.544 20.939C180.058 20.939 181.133 23.3706 182.592 23.8569C184.051 24.3432 184.537 23.8569 188.427 22.8843C192.318 21.9116 198.64 21.4253 202.531 22.398Z" fill="#DCDCDC"/>
<path d="M181.917 165.857C187.105 173.963 197.57 192.118 195.236 196.009" stroke="#141416" stroke-width="2" stroke-linecap="round" stroke-linejoin="round"/>
<path d="M174.138 161.48C180.622 170.72 193.785 190.076 194.563 193.577C195.341 197.079 194.887 196.981 194.563 196.495" stroke="#141416" stroke-width="2" stroke-linecap="round" stroke-linejoin="round"/>
<path d="M206.719 198.439C203.315 197.143 194.055 197.421 183.863 196.494C173.164 195.521 167.004 196.494 164.896 195.521" stroke="#141416" stroke-width="2" stroke-linecap="round" stroke-linejoin="round"/>
<path d="M193.101 197.955C188.886 197.955 179.387 197.955 175.107 197.955C170.827 197.955 164.894 198.603 162.463 198.928" stroke="#141416" stroke-width="2" stroke-linecap="round" stroke-linejoin="round"/>
<path d="M223.738 38.4461C222.766 35.0418 220.82 29.6923 220.82 23.3704C220.82 16.8824 223.742 4.65405 225.198 3.9177C228.697 2.14863 217.067 8.2946 214.984 17.0483C212.553 27.2608 214.336 31.7998 214.984 33.0966" stroke="#141416" stroke-width="2" stroke-linecap="round" stroke-linejoin="round"/>
<path d="M212.068 27.7458C210.227 25.6422 207.223 22.2565 203.016 19.9649M203.016 19.9649C202.036 19.4311 199.871 18.3782 198.937 18.0195C191.344 15.1018 185.794 15.8361 183.862 16.5606C179.971 18.0196 179.971 20.9374 181.916 20.9374C183.862 20.9374 186.299 19.4717 189.211 19.285C193.776 18.9923 200.103 19.0568 203.016 19.9649Z" stroke="#141416" stroke-width="2" stroke-linecap="round" stroke-linejoin="round"/>
<path d="M213.715 29.2062C213.229 24.5052 210.955 13.8846 207.205 8.78102C203.989 4.4042 198.64 1.97263 194.075 1" stroke="#141416" stroke-width="2" stroke-linecap="round" stroke-linejoin="round"/>
<path d="M212.554 27.2613C211.257 24.0192 208.164 18.7215 203.988 15.5897C202.043 14.1308 197.666 12.1855 195.533 11.6992" stroke="#141416" stroke-width="2" stroke-linecap="round" stroke-linejoin="round"/>
<path d="M199.423 36.5004C195.857 38.7699 188.725 42.6279 188.725 39.9046C188.725 36.5004 193.588 28.2331 204.287 27.2604C212.846 26.4823 214.201 31.1512 215.174 33.0966" stroke="#141416" stroke-width="2" stroke-linecap="round" stroke-linejoin="round"/>
<path d="M217.419 50.117C214.695 47.0046 211.745 44.9297 210.61 44.2812C212.88 47.1991 217.419 53.7157 217.419 56.4391C217.419 59.1812 220.027 58.7679 220.499 57.9951C220.613 57.8085 220.603 57.6009 220.401 57.4117C219.941 54.8458 219.043 51.9738 217.419 50.117Z" fill="#141416"/>
<path d="M177.539 35.5263C181.429 33.192 185.32 32.6084 186.779 32.6084C183.076 31.6358 176.858 34.3592 174.135 35.5263C170.73 36.9852 170.73 38.9305 170.73 40.3894C170.73 41.8484 172.676 38.4442 177.539 35.5263Z" fill="#141416"/>
<path d="M200.882 37.9609C197.964 40.5546 192.031 47.6872 191.642 55.4682" stroke="#141416" stroke-width="2" stroke-linecap="round" stroke-linejoin="round"/>
<path d="M172.676 92.9141L176.566 105.558" stroke="#141416" stroke-width="2" stroke-linecap="round" stroke-linejoin="round"/>
<path d="M170.731 95.8301C171.703 98.0995 173.648 102.833 173.648 103.611" stroke="#141416" stroke-width="2" stroke-linecap="round" stroke-linejoin="round"/>
<path d="M191.155 89.5095C188.4 89.3474 181.714 90.0932 180.158 92.4275" stroke="#141416" stroke-width="2" stroke-linecap="round" stroke-linejoin="round"/>
<path d="M198.937 82.2147C198.775 81.08 198.159 78.4215 196.992 76.8653C195.533 74.92 188.238 62.2759 186.293 61.3032C184.348 60.3306 178.512 64.2211 176.567 65.1937C174.621 66.1664 170.731 66.6527 168.786 67.6253C167.229 68.4034 168.786 77.6758 169.758 82.2147C177.215 81.4042 192.129 79.1996 192.129 76.8653C192.129 73.9474 198.937 80.7558 198.937 82.2147Z" stroke="#141416" stroke-width="2" stroke-linecap="round" stroke-linejoin="round"/>
<path d="M193.101 79.7832C194.236 81.5664 195.436 86.2025 191.156 90.4821C186.877 94.7617 182.24 96.48 180.457 96.8042C180.133 92.5895 178.804 84.16 176.08 84.16" stroke="#141416" stroke-width="2" stroke-linecap="round" stroke-linejoin="round"/>
<ellipse cx="4.37682" cy="5.83576" rx="4.37682" ry="5.83576" transform="matrix(-0.946158 -0.323706 -0.323705 0.946158 178.024 51.9805)" fill="#141416"/>
<ellipse cx="1.64518" cy="2.19357" rx="1.64518" ry="2.19357" transform="matrix(-0.946158 -0.323706 -0.323705 0.946158 173.162 54.0996)" fill="#FAFAFA"/>
<ellipse cx="4.37682" cy="5.83576" rx="4.37682" ry="5.83576" transform="matrix(-0.946158 -0.323706 -0.323705 0.946158 210.125 63.6504)" fill="#141416"/>
<ellipse cx="1.64518" cy="2.19357" rx="1.64518" ry="2.19357" transform="matrix(-0.946158 -0.323706 -0.323705 0.946158 205.26 65.7695)" fill="#FAFAFA"/>
<path d="M365.84 157.115C372.397 151.625 374.906 148.843 373.713 148.396C373.092 148.172 372.819 148.222 371.726 148.744C369.615 149.787 361.94 156.345 361.94 157.115C361.94 158.183 364.523 158.208 365.84 157.115Z" fill="#4F4F4F"/>
<path d="M348.626 157.314C349.446 156.767 349.396 156.668 346.217 153.215C344.528 151.352 343.137 150.184 342.119 149.737C340.728 149.116 340.057 149.961 340.604 150.656C345.273 156.668 347.211 158.257 348.626 157.314Z" fill="#4F4F4F"/>
<path d="M370.733 165.411C369.218 164.964 361.468 162.505 360.897 162.281C360.624 162.182 360.425 161.685 360.326 160.841C359.506 154.531 358.214 148.048 357.643 147.328C357.221 146.781 355.78 146.955 355.383 147.576C354.985 148.197 353.147 154.482 352.054 159.052L351.334 162.033C337.226 166.504 336.456 166.405 342.839 168.367L348.478 170.106C351.682 171.1 351.756 171.124 351.93 171.919C352.178 173.062 353.793 178.626 354.414 181.284C355.73 186.997 358.413 183.47 360.773 172.838L361.319 170.404C361.617 170.354 363.505 170.181 371.652 168.417C373.515 167.995 372.968 166.057 370.733 165.411ZM367.206 166.628C367.007 166.802 361.567 168.119 360.499 168.119C359.208 168.119 358.91 168.74 357.444 174.577C356.475 178.427 356.401 178.502 355.855 176.266C355.184 173.459 353.818 170.181 353.644 169.411C353.495 168.715 352.104 168.218 346.714 166.927C344.007 166.281 343.584 166.057 344.603 165.759C345.869 165.386 351.955 163.399 352.65 163.399C353.321 163.399 353.892 162.902 354.091 162.157L356.028 154.606C356.376 153.289 356.376 153.289 357.345 158.431C358.463 164.219 358.338 163.97 360.127 164.343C362.362 164.815 367.429 166.43 367.206 166.628Z" fill="#4F4F4F"/>
<path d="M362.685 173.236C362.685 173.782 369.242 180.415 370.161 180.787C372.099 181.582 372.596 180.539 371.056 178.874C366.908 174.329 362.685 171.497 362.685 173.236Z" fill="#4F4F4F"/>
<path d="M343.559 174.826C338.79 178.055 338.244 178.8 340.629 178.8C341.796 178.8 349.173 173.683 348.949 173.012C348.602 171.969 346.937 172.516 343.559 174.826Z" fill="#4F4F4F"/>
<path d="M75.4094 15.5609C79.6629 12.0001 81.2901 10.1955 80.5168 9.90547C80.114 9.76046 79.9368 9.79267 79.2279 10.131C77.8584 10.8078 72.8799 15.0615 72.8799 15.5609C72.8799 16.2538 74.5555 16.2699 75.4094 15.5609Z" fill="#3B4147"/>
<path d="M64.2442 15.6898C64.7758 15.3354 64.7436 15.2709 62.6814 13.0313C61.5858 11.8228 60.6836 11.0655 60.023 10.7755C59.1208 10.3727 58.6857 10.9205 59.0402 11.3717C62.0691 15.2709 63.3258 16.3021 64.2442 15.6898Z" fill="#3B4147"/>
<path d="M78.5834 20.9425C77.6006 20.6524 72.574 19.0573 72.2034 18.9123C72.0262 18.8479 71.8973 18.5256 71.8328 17.9778C71.3012 13.8853 70.4632 9.67984 70.0926 9.21258C69.8187 8.85811 68.8843 8.97089 68.6265 9.3737C68.3687 9.77651 67.1765 13.853 66.4676 16.8177L66.0005 18.7512C56.8491 21.6514 56.3496 21.587 60.4903 22.8598L64.1477 23.9877C66.226 24.6322 66.2742 24.6481 66.387 25.1637C66.5481 25.9049 67.5954 29.5142 67.9981 31.2383C68.8521 34.9441 70.5923 32.6561 72.1229 25.7601L72.4773 24.1811C72.6706 24.1488 73.895 24.036 79.1795 22.8921C80.3879 22.6182 80.0334 21.3614 78.5834 20.9425ZM76.2956 21.732C76.1667 21.8448 72.6383 22.6987 71.9455 22.6987C71.1077 22.6987 70.9143 23.1015 69.9637 26.8879C69.3354 29.3853 69.2872 29.4335 68.9328 27.9834C68.4978 26.1627 67.6115 24.036 67.4987 23.5366C67.402 23.0854 66.4998 22.7632 63.0036 21.9253C61.2475 21.5064 60.9736 21.3614 61.6341 21.168C62.4558 20.9264 66.4031 19.6374 66.8542 19.6374C67.2892 19.6374 67.6598 19.3151 67.7887 18.8318L69.0454 13.9336C69.271 13.0796 69.2711 13.0796 69.8995 16.4149C70.6245 20.1691 70.5438 20.0078 71.7038 20.2495C73.1538 20.5556 76.4406 21.6031 76.2956 21.732Z" fill="#3B4147"/>
<path d="M73.3633 26.0179C73.3633 26.3723 77.6167 30.6743 78.2128 30.916C79.4695 31.4316 79.7918 30.7547 78.7929 29.6752C76.1022 26.7266 73.3633 24.89 73.3633 26.0179Z" fill="#3B4147"/>
<path d="M60.9575 27.049C57.8641 29.1437 57.5096 29.627 59.0563 29.627C59.8136 29.627 64.5986 26.3079 64.4536 25.8728C64.2281 25.1961 63.1486 25.5506 60.9575 27.049Z" fill="#3B4147"/>
<defs>
<filter id="filter0_f_9416_20481" x="147.826" y="195.719" width="157.238" height="27.2812" filterUnits="userSpaceOnUse" color-interpolation-filters="sRGB">
<feFlood flood-opacity="0" result="BackgroundImageFix"/>
<feBlend mode="normal" in="SourceGraphic" in2="BackgroundImageFix" result="shape"/>
<feGaussianBlur stdDeviation="2" result="effect1_foregroundBlur_9416_20481"/>
</filter>
</defs>
</svg>
