<svg width="441" height="336" viewBox="0 0 441 336" fill="none" xmlns="http://www.w3.org/2000/svg">
<path d="M413.84 284.115C420.397 278.625 422.906 275.843 421.713 275.396C421.092 275.172 420.819 275.222 419.726 275.744C417.615 276.787 409.94 283.345 409.94 284.115C409.94 285.183 412.523 285.208 413.84 284.115Z" fill="#4F4F4F"/>
<path d="M396.626 284.314C397.446 283.767 397.396 283.668 394.217 280.215C392.528 278.352 391.137 277.184 390.119 276.737C388.728 276.116 388.057 276.961 388.604 277.656C393.273 283.668 395.211 285.257 396.626 284.314Z" fill="#4F4F4F"/>
<path d="M418.733 292.411C417.218 291.964 409.468 289.505 408.897 289.281C408.624 289.182 408.425 288.685 408.326 287.841C407.506 281.531 406.214 275.048 405.643 274.328C405.221 273.781 403.78 273.955 403.383 274.576C402.985 275.197 401.147 281.482 400.054 286.052L399.334 289.033C385.226 293.504 384.456 293.405 390.839 295.367L396.478 297.106C399.682 298.1 399.756 298.124 399.93 298.919C400.178 300.062 401.793 305.626 402.414 308.284C403.73 313.997 406.413 310.47 408.773 299.838L409.319 297.404C409.617 297.354 411.505 297.181 419.652 295.417C421.515 294.995 420.968 293.057 418.733 292.411ZM415.206 293.628C415.007 293.802 409.567 295.119 408.499 295.119C407.208 295.119 406.91 295.74 405.444 301.577C404.475 305.427 404.401 305.502 403.855 303.266C403.184 300.459 401.818 297.181 401.644 296.411C401.495 295.715 400.104 295.218 394.714 293.927C392.007 293.281 391.584 293.057 392.603 292.759C393.869 292.386 399.955 290.399 400.65 290.399C401.321 290.399 401.892 289.902 402.091 289.157L404.028 281.606C404.376 280.289 404.376 280.289 405.345 285.431C406.463 291.219 406.338 290.97 408.127 291.343C410.362 291.815 415.429 293.43 415.206 293.628Z" fill="#4F4F4F"/>
<path d="M410.685 300.236C410.685 300.782 417.242 307.415 418.161 307.787C420.099 308.582 420.596 307.539 419.056 305.874C414.908 301.329 410.685 298.497 410.685 300.236Z" fill="#4F4F4F"/>
<path d="M391.559 301.826C386.79 305.055 386.244 305.8 388.629 305.8C389.796 305.8 397.173 300.683 396.949 300.012C396.602 298.969 394.937 299.516 391.559 301.826Z" fill="#4F4F4F"/>
<g filter="url(#filter0_f_8748_254)">
<path d="M146.156 286.485C128.997 283.804 122.92 287.602 122.027 289.836C118.273 299.22 92.8048 306.19 88.5151 299.22C85.1651 299.22 63.0442 295.868 58.3524 301.23C53.6606 306.592 90.5237 311.955 98.5668 311.955C106.61 311.955 128.059 309.944 153.529 311.955C178.999 313.965 188.382 298.549 226.587 301.23C264.792 303.911 264.121 297.879 263.451 295.868C262.781 293.858 227.927 289.836 211.841 289.836C195.755 289.836 167.604 289.836 146.156 286.485Z" fill="#E7E7E7"/>
</g>
<path d="M143.475 227.502C136.505 228.574 134.092 225.268 130.07 222.81C140.794 220.799 147.497 218.788 154.2 210.745C156.947 207.448 160.232 198.01 160.232 187.957C160.232 180.111 157.551 165.168 145.486 137.017C135.262 113.161 143.018 89.0438 146.794 78.8389C147.07 76.392 147.518 74.6613 148.167 74.0121C149.091 73.0887 148.23 74.9576 146.794 78.8389C145.645 89.0232 147.476 111.614 150.178 120.261C153.377 130.497 163.377 143.75 169.615 163.157C175.648 181.924 175.648 201.362 169.615 210.745C161.471 223.415 152.189 226.161 143.475 227.502Z" fill="#DCDCDC" stroke="#DCDCDC"/>
<path d="M211.839 232.193C206.477 233.802 189.944 234.651 182.348 234.874C187.039 232.863 218.542 228.172 235.968 217.448C253.395 206.723 260.097 196.67 270.151 181.254C278.194 168.921 282.886 141.038 282.216 132.995C284.003 138.357 286.238 147.071 286.238 158.465C286.238 169.859 286.238 175.221 278.194 189.967C272.589 200.243 262.779 210.745 252.054 217.448C241.574 223.998 218.542 230.182 211.839 232.193Z" fill="#DCDCDC"/>
<path d="M298.973 90.769C304.107 83.7097 311.038 68.6505 315.73 58.5967C313.719 80.0449 309.027 108.196 290.93 120.26L286.238 102.834C289.366 100.599 293.611 98.1419 298.973 90.769Z" fill="#DCDCDC"/>
<path d="M142.803 165.838C130.738 169.86 121.801 167.402 111.301 167.849C118.003 170.53 128.509 175 131.408 175.892C140.122 178.573 158.889 181.254 158.889 175.892C158.889 172.674 155.314 162.263 153.527 157.795C153.527 157.795 150.846 163.157 142.803 165.838Z" fill="#DCDCDC"/>
<path d="M214.175 98.2068C214.289 97.9079 214.41 97.6604 214.524 97.4717C214.479 97.6735 214.357 97.9208 214.175 98.2068C213.609 99.6774 213.187 102.396 214.524 105.515C216.534 110.207 231.279 118.92 238.652 122.271C239.993 122.881 211.172 120.931 208.491 116.909C206.345 113.692 207.374 114.452 205.139 114.898L199.777 120.26C200.519 116.686 205.802 109.995 208.491 105.515C210.199 102.668 213.145 99.8211 214.175 98.2068Z" fill="#DCDCDC"/>
<path d="M101.917 218.118C105.671 219.191 122.472 221.469 129.398 222.81C125.153 221.023 112.909 217.716 105.939 216.107C97.2254 214.097 72.4259 203.372 67.0642 200.691C64.3836 202.032 61.0319 200.691 59.6914 202.032C58.3509 203.372 65.0535 208.064 67.0642 208.734C69.075 209.405 97.2254 216.778 101.917 218.118Z" fill="#DCDCDC"/>
<path d="M56.3398 156.454C56.3398 154.309 58.574 147.071 59.6911 143.719C61.0316 148.411 75.6692 165.708 79.1286 169.859C82.4799 173.881 138.111 218.788 136.771 218.118C135.43 217.448 109.96 202.702 105.269 198.68C102.528 196.331 78.4583 179.913 73.7665 175.221C69.9455 171.4 56.3398 159.135 56.3398 156.454Z" fill="#DCDCDC"/>
<path d="M97.8983 155.114L86.5039 132.995C88.2913 133.442 94.2789 136.346 95.8875 136.346C97.4961 136.346 101.473 138.581 103.26 139.698C104.377 141.485 107.014 148.813 108.622 150.422C110.231 152.03 109.293 150.869 108.622 151.762L97.8983 155.114Z" fill="#DCDCDC"/>
<path d="M120.014 194.659C113.758 185.275 106.832 172.54 104.598 167.178C107.949 168.072 112.478 169.026 115.322 171.87C118.003 174.551 119.343 181.924 125.376 195.999C126.247 198.031 133.419 210.968 136.77 216.777C131.185 209.851 123.231 199.485 120.014 194.659Z" fill="#DCDCDC"/>
<path d="M215.191 133.665C212.51 133.129 209.605 133.889 208.488 134.336C210.499 135.9 214.655 139.162 215.191 139.698C215.727 140.234 221.223 142.602 223.904 143.719L224.574 140.368C224.574 139.251 224.172 136.883 222.564 136.347C220.553 135.676 218.542 134.336 215.191 133.665Z" fill="#DCDCDC"/>
<path d="M186.369 52.5644C179.935 53.1008 177.88 55.4688 176.986 56.5859C176.316 55.9153 177.924 53.3689 178.996 51.2238C180.337 48.5425 187.039 47.8726 190.391 47.8726C197.093 47.8726 203.5 51.3956 205.136 52.5644C209.828 55.9156 210.498 59.9372 211.169 61.2777C211.839 62.6182 212.509 65.9695 211.839 66.6398C211.169 67.31 208.487 66.6398 208.487 65.9695C208.487 65.2992 207.817 61.948 204.466 58.5967C201.114 55.2454 194.412 51.8938 186.369 52.5644Z" fill="#DCDCDC"/>
<path d="M189.052 19.7218C191.733 15.9684 201.34 12.7958 205.808 11.6787C206.702 12.349 206.344 13.2873 203.127 14.3597C199.105 15.7003 189.052 22.4028 189.052 29.1054C189.052 36.8387 189.275 42.5105 191.062 44.5213C187.934 46.7555 179.668 49.8834 179.668 44.5213C179.668 37.8187 185.7 24.4136 189.052 19.7218Z" fill="#DCDCDC"/>
<path d="M264.383 65.9699C268.181 65.7465 278.592 62.6186 289.853 51.8945C301.113 41.1704 310.631 27.3184 313.982 21.7329C314.205 36.2551 314.116 65.9699 311.971 68.6509C309.29 72.0022 318.003 55.916 318.003 51.8945C318.003 47.8729 312.641 96.1315 301.247 109.537C292.131 120.261 289.853 121.154 289.853 120.261" stroke="#141416" stroke-width="2" stroke-linecap="round" stroke-linejoin="round"/>
<path d="M285.832 82.7265C290.524 79.822 301.114 69.7235 305.94 52.5649C310.766 35.4063 313.313 25.3078 313.983 22.4033" stroke="#141416" stroke-width="2" stroke-linecap="round" stroke-linejoin="round"/>
<path d="M78.0469 159.135C88.5476 161.592 112.096 167.848 122.284 173.21C132.472 178.572 151.105 179.466 159.148 179.242" stroke="#141416" stroke-width="2" stroke-linecap="round" stroke-linejoin="round"/>
<path d="M144.402 134.335C131.891 142.602 101.104 159.135 78.0469 159.135" stroke="#141416" stroke-width="2" stroke-linecap="round" stroke-linejoin="round"/>
<path d="M147.084 157.794C128.541 159.805 89.1741 163.022 80.0586 159.805" stroke="#141416" stroke-width="2" stroke-linecap="round" stroke-linejoin="round"/>
<path d="M129.658 166.508C123.402 167.178 108.612 167.849 99.4961 165.167" stroke="#141416" stroke-width="2" stroke-linecap="round" stroke-linejoin="round"/>
<path d="M128.727 222.81C110.853 219.682 81.3979 213.426 70.0043 209.405C64.6413 207.512 57.2694 206.053 59.2802 195.999C61.291 185.946 63.2995 178.573 66.6519 177.902C70.0043 177.232 86.5341 191.996 96.1432 198.68C111.559 209.405 126.975 216.777 132.337 218.118C136.627 219.19 143.508 218.565 146.413 218.118" stroke="#141416" stroke-width="2" stroke-linecap="round" stroke-linejoin="round"/>
<path d="M63.3013 179.913C59.95 177.009 53.6496 169.725 55.2582 163.827C58.4746 138.625 66.8763 126.069 70.6751 122.941C74.6967 125.622 82.0695 144.39 84.0803 147.741C86.0762 151.068 87.9964 154.415 89.8534 157.72M141.722 220.129C140.605 219.235 137.835 217.18 135.69 216.107C133.009 214.767 120.543 202.301 112.901 194.659C106.488 188.245 100.002 176.022 92.5344 162.532" stroke="#141416" stroke-width="2" stroke-linecap="round" stroke-linejoin="round"/>
<path d="M115.324 169.859C119.122 181.477 129.525 208.466 139.713 218.118" stroke="#141416" stroke-width="2"/>
<path d="M76.4492 130.984C82.9284 132.548 100.838 137.017 103.519 139.698C106.2 142.379 108.211 148.858 109.551 151.092" stroke="#141416" stroke-width="2" stroke-linecap="round" stroke-linejoin="round"/>
<path d="M194.004 234.874C164.513 238.091 137.479 227.724 127.648 222.139C131 220.351 140.435 221.855 146.416 218.117C157.14 211.415 169.204 195.999 151.778 153.102C134.351 110.206 141.054 85.4062 149.097 72.6713C156.147 61.5087 180.599 45.1908 203.387 40.499C226.176 35.8072 246.284 49.4039 257.008 58.5959C284.489 85.4063 291.191 118.249 292.532 141.038C293.872 163.826 276.892 194.211 275.775 195.328C253.657 224.149 230.868 230.852 194.004 234.874Z" stroke="#141416" stroke-width="2" stroke-linecap="round" stroke-linejoin="round"/>
<path d="M77.3789 302.57C88.103 295.644 111.026 281.792 116.924 281.792" stroke="#141416" stroke-width="2" stroke-linecap="round" stroke-linejoin="round"/>
<path d="M90.7852 304.581C120.723 278.441 184.487 224.284 200.037 216.777" stroke="#141416" stroke-width="2" stroke-linecap="round" stroke-linejoin="round"/>
<path d="M98.1562 307.262C114.913 286.484 152.447 243.051 168.533 235.544" stroke="#141416" stroke-width="2" stroke-linecap="round" stroke-linejoin="round"/>
<path d="M123.627 271.068C122.286 273.749 119.605 279.38 119.605 280.452" stroke="#141416" stroke-width="2" stroke-linecap="round" stroke-linejoin="round"/>
<path d="M164.777 63.9588C164.777 61.9481 168.439 51.3116 168.798 46.6336C169.469 37.9203 166.821 23.049 164.777 19.1532C164.632 18.8779 164.494 18.6197 164.363 18.3813C166.432 21.5162 170.875 29.3254 172.102 35.4834C172.967 40.4998 173.794 46.6181 172.967 50.5537C172.264 53.8983 170.286 58.5968 168.275 61.2778L168.252 61.3086C167.631 62.1362 164.777 65.9438 164.777 63.9588Z" fill="#DCDCDC"/>
<path d="M193.741 41.1709C189.58 42.2112 184.358 47.2032 183.688 47.2032C184.358 45.1924 189.05 41.3049 191.731 39.16C195.082 36.4789 197.093 37.1493 199.774 36.4791C202.455 35.8088 209.828 37.8196 211.98 37.8196C213.478 37.8196 223.374 39.16 224.044 39.16C224.715 39.16 223.233 42.5114 221.222 43.1816C219.211 43.8519 218.541 43.1816 213.179 41.8411C207.817 40.5006 199.103 39.8303 193.741 41.1709Z" fill="#DCDCDC"/>
<path d="M222.153 238.896C215.004 250.067 200.58 275.09 203.797 280.452" stroke="#141416" stroke-width="2" stroke-linecap="round" stroke-linejoin="round"/>
<path d="M232.872 232.864C223.935 245.599 205.793 272.275 204.721 277.101C203.649 281.927 204.274 281.793 204.721 281.122" stroke="#141416" stroke-width="2" stroke-linecap="round" stroke-linejoin="round"/>
<path d="M187.969 283.803C192.661 282.016 205.423 282.399 219.471 281.122C234.216 279.782 242.706 281.122 245.611 279.782" stroke="#141416" stroke-width="2" stroke-linecap="round" stroke-linejoin="round"/>
<path d="M206.738 283.133C212.547 283.133 225.64 283.133 231.538 283.133C237.436 283.133 245.613 284.026 248.964 284.473" stroke="#141416" stroke-width="2" stroke-linecap="round" stroke-linejoin="round"/>
<path d="M164.512 63.2892C165.851 58.5973 168.533 51.2244 168.533 42.5113C168.533 33.5692 164.507 16.7157 162.5 15.7008C157.677 13.2626 173.706 21.7332 176.578 33.7979C179.928 47.8731 177.471 54.129 176.577 55.9164" stroke="#141416" stroke-width="2" stroke-linecap="round" stroke-linejoin="round"/>
<path d="M180.598 48.5424C183.135 45.6431 187.276 40.9767 193.073 37.8184M193.073 37.8184C194.424 37.0826 197.408 35.6315 198.695 35.1372C209.16 31.1159 216.81 32.128 219.473 33.1264C224.835 35.1372 224.835 39.1588 222.154 39.1588C219.473 39.1588 216.113 37.1387 212.1 36.8813C205.808 36.4779 197.088 36.5668 193.073 37.8184Z" stroke="#141416" stroke-width="2" stroke-linecap="round" stroke-linejoin="round"/>
<path d="M178.328 50.5536C178.998 44.0745 182.132 29.4368 187.301 22.4028C191.733 16.3705 199.106 13.0192 205.398 11.6787" stroke="#141416" stroke-width="2" stroke-linecap="round" stroke-linejoin="round"/>
<path d="M179.926 47.8725C181.713 43.4042 185.976 36.1027 191.731 31.7864C194.412 29.7756 200.445 27.0946 203.385 26.4243" stroke="#141416" stroke-width="2" stroke-linecap="round" stroke-linejoin="round"/>
<path d="M198.024 60.6062C202.939 63.7341 212.77 69.0514 212.77 65.298C212.77 60.6062 206.067 49.2118 191.322 47.8713C179.525 46.7989 177.657 53.2338 176.316 55.915" stroke="#141416" stroke-width="2" stroke-linecap="round" stroke-linejoin="round"/>
<path d="M173.223 79.3746C176.976 75.085 181.043 72.2252 182.607 71.3315C179.479 75.3531 173.223 84.3345 173.223 88.088C173.223 91.8673 169.629 91.2976 168.978 90.2325C168.82 89.9753 168.835 89.6892 169.113 89.4285C169.747 85.8921 170.984 81.9337 173.223 79.3746Z" fill="#141416"/>
<path d="M228.188 59.267C222.826 56.0498 217.464 55.2455 215.453 55.2455C220.556 53.905 229.126 57.6584 232.88 59.267C237.572 61.2778 237.572 63.9588 237.572 65.9696C237.572 67.9803 234.891 63.2885 228.188 59.267Z" fill="#141416"/>
<path d="M196.016 62.6182C200.037 66.1929 208.214 76.0233 208.751 86.7474" stroke="#141416" stroke-width="2" stroke-linecap="round" stroke-linejoin="round"/>
<path d="M234.889 138.357L229.527 155.784" stroke="#141416" stroke-width="2" stroke-linecap="round" stroke-linejoin="round"/>
<path d="M237.572 142.379C236.232 145.507 233.551 152.031 233.551 153.103" stroke="#141416" stroke-width="2" stroke-linecap="round" stroke-linejoin="round"/>
<path d="M209.422 133.666C213.22 133.443 222.434 134.47 224.579 137.688" stroke="#141416" stroke-width="2" stroke-linecap="round" stroke-linejoin="round"/>
<path d="M198.695 123.612C198.919 122.048 199.768 118.384 201.376 116.239C203.387 113.558 213.441 96.131 216.122 94.7905C218.803 93.45 226.846 98.812 229.527 100.153C232.208 101.493 237.57 102.163 240.251 103.504C242.396 104.576 240.251 117.356 238.911 123.612C228.633 122.494 208.079 119.456 208.079 116.239C208.079 112.217 198.695 121.601 198.695 123.612Z" stroke="#141416" stroke-width="2" stroke-linecap="round" stroke-linejoin="round"/>
<path d="M206.737 120.26C205.173 122.718 203.52 129.108 209.418 135.006C215.316 140.904 221.706 143.272 224.164 143.719C224.611 137.91 226.443 126.293 230.196 126.293" stroke="#141416" stroke-width="2" stroke-linecap="round" stroke-linejoin="round"/>
<ellipse cx="235.831" cy="87.5963" rx="6.03231" ry="8.04309" transform="rotate(-18.8872 235.831 87.5963)" fill="#141416"/>
<ellipse cx="237.347" cy="86.9903" rx="2.26745" ry="3.02327" transform="rotate(-18.8872 237.347 86.9903)" fill="#FAFAFA"/>
<ellipse cx="191.588" cy="103.683" rx="6.03231" ry="8.04309" transform="rotate(-18.8872 191.588 103.683)" fill="#141416"/>
<ellipse cx="193.108" cy="103.077" rx="2.26745" ry="3.02327" transform="rotate(-18.8872 193.108 103.077)" fill="#FAFAFA"/>
<defs>
<filter id="filter0_f_8748_254" x="53.9414" y="281.562" width="213.688" height="34.5737" filterUnits="userSpaceOnUse" color-interpolation-filters="sRGB">
<feFlood flood-opacity="0" result="BackgroundImageFix"/>
<feBlend mode="normal" in="SourceGraphic" in2="BackgroundImageFix" result="shape"/>
<feGaussianBlur stdDeviation="2" result="effect1_foregroundBlur_8748_254"/>
</filter>
</defs>
</svg>
