<svg width="420" height="352" viewBox="0 0 420 352" fill="none" xmlns="http://www.w3.org/2000/svg">
<g filter="url(#filter0_f_8702_481)">
<path d="M212.039 286.485C229.198 283.804 235.275 287.602 236.169 289.836C239.922 299.22 265.391 306.19 269.68 299.22C273.03 299.22 295.151 295.868 299.843 301.23C304.535 306.592 267.672 311.955 259.629 311.955C251.585 311.955 230.136 309.944 204.666 311.955C179.197 313.965 169.813 298.549 131.608 301.23C93.4037 303.911 94.074 297.879 94.7442 295.868C95.4145 293.858 130.268 289.836 146.354 289.836C162.44 289.836 190.591 289.836 212.039 286.485Z" fill="#E7E7E7"/>
</g>
<path d="M214.72 227.501C221.691 228.574 224.103 225.267 228.125 222.81C217.401 220.799 210.698 218.788 203.996 210.745C201.248 207.448 197.963 198.01 197.963 187.956C197.963 180.111 200.644 165.167 212.709 137.016C222.933 113.161 215.177 89.0433 211.401 78.8384C211.125 76.3916 210.677 74.6608 210.028 74.0117C209.105 73.0883 209.965 74.9571 211.401 78.8384C212.55 89.0227 210.719 111.613 208.017 120.26C204.819 130.496 194.818 143.749 188.58 163.157C182.548 181.924 182.548 201.361 188.58 210.745C196.725 223.415 206.007 226.161 214.72 227.501Z" fill="#DCDCDC" stroke="#DCDCDC"/>
<path d="M146.356 232.193C151.718 233.802 168.251 234.651 175.848 234.874C171.156 232.863 139.654 228.172 122.227 217.448C104.8 206.723 98.0978 196.67 88.044 181.254C80.0009 168.921 75.3091 141.038 75.9793 132.995C74.192 138.357 71.9578 147.071 71.9578 158.465C71.9578 169.859 71.9578 175.221 80.0009 189.967C85.6061 200.243 95.4168 210.745 106.141 217.448C116.621 223.998 139.654 230.182 146.356 232.193Z" fill="#DCDCDC"/>
<path d="M59.2221 90.769C54.0881 83.7097 47.1575 68.6505 42.4657 58.5967C44.4765 80.0449 49.1683 108.196 67.2652 120.26L71.957 102.834C68.8292 100.599 64.5842 98.1419 59.2221 90.769Z" fill="#DCDCDC"/>
<path d="M215.392 165.838C227.457 169.86 236.394 167.402 246.895 167.849C240.192 170.53 229.686 175 226.787 175.892C218.073 178.573 199.306 181.254 199.306 175.892C199.306 172.674 202.881 162.263 204.668 157.795C204.668 157.795 207.349 163.157 215.392 165.838Z" fill="#DCDCDC"/>
<path d="M144.021 98.2068C143.906 97.9079 143.785 97.6604 143.672 97.4717C143.716 97.6735 143.838 97.9208 144.021 98.2068C144.586 99.6774 145.009 102.396 143.672 105.515C141.661 110.207 126.916 118.92 119.543 122.271C118.203 122.881 147.023 120.931 149.705 116.909C151.85 113.692 150.822 114.452 153.056 114.898L158.418 120.26C157.676 116.686 152.393 109.995 149.705 105.515C147.997 102.668 145.05 99.8211 144.021 98.2068Z" fill="#DCDCDC"/>
<path d="M256.278 218.118C252.525 219.191 235.723 221.469 228.797 222.81C233.042 221.023 245.286 217.716 252.257 216.107C260.97 214.097 285.769 203.372 291.131 200.691C293.812 202.032 297.163 200.691 298.504 202.032C299.844 203.372 293.142 208.064 291.131 208.734C289.12 209.405 260.97 216.778 256.278 218.118Z" fill="#DCDCDC"/>
<path d="M301.855 156.455C301.855 154.31 299.621 147.071 298.504 143.72C297.164 148.412 282.526 165.708 279.067 169.86C275.715 173.881 220.084 218.789 221.425 218.118C222.765 217.448 248.235 202.702 252.927 198.681C255.667 196.332 279.737 179.914 284.429 175.222C288.25 171.401 301.855 159.136 301.855 156.455Z" fill="#DCDCDC"/>
<path d="M260.297 155.114L271.691 132.995C269.904 133.442 263.916 136.346 262.308 136.346C260.699 136.346 256.722 138.581 254.935 139.698C253.818 141.485 251.182 148.813 249.573 150.422C247.964 152.03 248.903 150.869 249.573 151.762L260.297 155.114Z" fill="#DCDCDC"/>
<path d="M238.182 194.659C244.437 185.276 251.363 172.541 253.598 167.179C250.246 168.072 245.717 169.027 242.874 171.871C240.193 174.552 238.852 181.924 232.82 196C231.949 198.032 224.777 210.969 221.425 216.778C227.011 209.852 234.965 199.485 238.182 194.659Z" fill="#DCDCDC"/>
<path d="M143.004 133.665C145.685 133.129 148.59 133.888 149.707 134.335C147.696 135.899 143.541 139.161 143.004 139.697C142.468 140.234 136.972 142.602 134.291 143.719L133.621 140.368C133.621 139.251 134.023 136.882 135.632 136.346C137.642 135.676 139.653 134.335 143.004 133.665Z" fill="#DCDCDC"/>
<path d="M171.826 52.5648C178.261 53.1013 180.315 55.4693 181.209 56.5864C181.879 55.9158 180.271 53.3694 179.199 51.2243C177.858 48.543 171.156 47.873 167.805 47.873C161.102 47.873 154.695 51.3961 153.059 52.5648C148.367 55.9161 147.697 59.9377 147.027 61.2782C146.356 62.6187 145.686 65.97 146.356 66.6402C147.027 67.3105 149.708 66.6402 149.708 65.97C149.708 65.2997 150.378 61.9484 153.73 58.5972C157.081 55.2459 163.783 51.8943 171.826 52.5648Z" fill="#DCDCDC"/>
<path d="M169.144 19.7218C166.463 15.9684 156.856 12.7958 152.387 11.6787C151.494 12.349 151.851 13.2873 155.068 14.3597C159.09 15.7003 169.144 22.4028 169.144 29.1054C169.144 36.8387 168.92 42.5105 167.133 44.5213C170.261 46.7555 178.527 49.8834 178.527 44.5213C178.527 37.8187 172.495 24.4136 169.144 19.7218Z" fill="#DCDCDC"/>
<path d="M93.8125 65.9694C90.0144 65.746 79.603 62.6181 68.3427 51.894C57.0824 41.1699 47.5648 27.3179 44.2135 21.7324C43.9901 36.2547 44.0794 65.9694 46.2242 68.6504C48.9053 72.0017 40.1919 55.9155 40.1919 51.894C40.1919 47.8725 45.554 96.131 56.9484 109.536C66.0639 120.26 68.3427 121.154 68.3427 120.26" stroke="#141416" stroke-width="2" stroke-linecap="round" stroke-linejoin="round"/>
<path d="M72.3633 82.7255C67.6715 79.821 57.0814 69.7225 52.2556 52.5639C47.4297 35.4053 44.8827 25.3068 44.2125 22.4023" stroke="#141416" stroke-width="2" stroke-linecap="round" stroke-linejoin="round"/>
<path d="M280.148 159.136C269.648 161.593 246.099 167.849 235.911 173.211C225.724 178.573 207.09 179.467 199.047 179.243" stroke="#141416" stroke-width="2" stroke-linecap="round" stroke-linejoin="round"/>
<path d="M213.793 134.336C226.304 142.602 257.092 159.135 280.148 159.135" stroke="#141416" stroke-width="2" stroke-linecap="round" stroke-linejoin="round"/>
<path d="M211.111 157.795C229.655 159.806 269.021 163.023 278.137 159.806" stroke="#141416" stroke-width="2" stroke-linecap="round" stroke-linejoin="round"/>
<path d="M228.538 166.508C234.793 167.179 249.584 167.849 258.699 165.168" stroke="#141416" stroke-width="2" stroke-linecap="round" stroke-linejoin="round"/>
<path d="M229.469 222.809C247.342 219.681 276.797 213.426 288.191 209.404C293.554 207.511 300.926 206.053 298.915 195.999C296.904 185.945 294.896 178.572 291.543 177.902C288.191 177.232 271.661 191.995 262.052 198.68C246.636 209.404 231.22 216.777 225.858 218.117C221.569 219.19 214.687 218.564 211.783 218.117" stroke="#141416" stroke-width="2" stroke-linecap="round" stroke-linejoin="round"/>
<path d="M294.894 179.913C298.245 177.009 304.546 169.725 302.937 163.827C299.721 138.625 291.319 126.069 287.52 122.941C283.499 125.622 276.126 144.39 274.115 147.741C272.119 151.068 270.199 154.415 268.342 157.72M216.473 220.129C217.59 219.235 220.36 217.18 222.505 216.107C225.186 214.767 237.652 202.301 245.294 194.659C251.707 188.245 258.193 176.022 265.661 162.532" stroke="#141416" stroke-width="2" stroke-linecap="round" stroke-linejoin="round"/>
<path d="M242.871 169.859C239.073 181.477 228.671 208.466 218.483 218.118" stroke="#141416" stroke-width="2"/>
<path d="M281.746 130.984C275.267 132.548 257.358 137.017 254.677 139.698C251.996 142.379 249.985 148.858 248.644 151.092" stroke="#141416" stroke-width="2" stroke-linecap="round" stroke-linejoin="round"/>
<path d="M164.191 234.874C193.683 238.091 220.716 227.725 230.547 222.139C227.196 220.352 217.76 221.856 211.78 218.118C201.056 211.415 188.991 195.999 206.418 153.103C223.844 110.206 217.142 85.4067 209.099 72.6718C202.049 61.5092 177.597 45.1913 154.808 40.4995C132.019 35.8077 111.911 49.4044 101.187 58.5964C73.7067 85.4067 67.0041 118.249 65.6636 141.038C64.3231 163.827 81.3029 194.212 82.42 195.329C104.539 224.15 127.327 230.852 164.191 234.874Z" stroke="#141416" stroke-width="2" stroke-linecap="round" stroke-linejoin="round"/>
<path d="M280.816 302.57C270.092 295.644 247.17 281.792 241.271 281.792" stroke="#141416" stroke-width="2" stroke-linecap="round" stroke-linejoin="round"/>
<path d="M267.41 304.581C237.472 278.441 173.708 224.284 158.158 216.777" stroke="#141416" stroke-width="2" stroke-linecap="round" stroke-linejoin="round"/>
<path d="M260.039 307.262C243.283 286.484 205.748 243.052 189.662 235.545" stroke="#141416" stroke-width="2" stroke-linecap="round" stroke-linejoin="round"/>
<path d="M234.568 271.068C235.909 273.749 238.59 279.38 238.59 280.452" stroke="#141416" stroke-width="2" stroke-linecap="round" stroke-linejoin="round"/>
<path d="M193.418 63.9583C193.418 61.9476 189.757 51.3111 189.397 46.6331C188.727 37.9198 191.374 23.0485 193.418 19.1527C193.563 18.8774 193.701 18.6193 193.832 18.3809C191.764 21.5157 187.32 29.3249 186.093 35.4829C185.229 40.4993 184.402 46.6176 185.229 50.5532C185.931 53.8978 187.91 58.5963 189.92 61.2773L189.944 61.3081C190.564 62.1357 193.418 65.9433 193.418 63.9583Z" fill="#DCDCDC"/>
<path d="M164.454 41.1704C168.616 42.2108 173.838 47.2027 174.508 47.2027C173.838 45.1919 169.146 41.3044 166.465 39.1595C163.113 36.4784 161.103 37.1488 158.422 36.4786C155.741 35.8083 148.368 37.8191 146.216 37.8191C144.717 37.8191 134.821 39.1595 134.151 39.1595C133.481 39.1595 134.963 42.5109 136.973 43.1811C138.984 43.8514 139.654 43.1811 145.016 41.8406C150.379 40.5001 159.092 39.8299 164.454 41.1704Z" fill="#DCDCDC"/>
<path d="M136.042 238.896C143.192 250.067 157.616 275.09 154.398 280.452" stroke="#141416" stroke-width="2" stroke-linecap="round" stroke-linejoin="round"/>
<path d="M125.323 232.864C134.26 245.599 152.402 272.275 153.474 277.101C154.547 281.927 153.921 281.793 153.474 281.123" stroke="#141416" stroke-width="2" stroke-linecap="round" stroke-linejoin="round"/>
<path d="M170.227 283.804C165.535 282.016 152.772 282.4 138.724 281.123C123.979 279.782 115.489 281.123 112.584 279.782" stroke="#141416" stroke-width="2" stroke-linecap="round" stroke-linejoin="round"/>
<path d="M151.457 283.134C145.648 283.134 132.556 283.134 126.658 283.134C120.759 283.134 112.582 284.027 109.231 284.474" stroke="#141416" stroke-width="2" stroke-linecap="round" stroke-linejoin="round"/>
<path d="M193.684 63.2892C192.344 58.5973 189.662 51.2244 189.662 42.5113C189.662 33.5692 193.688 16.7157 195.696 15.7008C200.518 13.2626 184.49 21.7332 181.618 33.7979C178.267 47.8731 180.725 54.129 181.618 55.9164" stroke="#141416" stroke-width="2" stroke-linecap="round" stroke-linejoin="round"/>
<path d="M177.598 48.5429C175.061 45.6436 170.92 40.9772 165.122 37.8189M165.122 37.8189C163.771 37.0831 160.787 35.632 159.501 35.1377C149.036 31.1164 141.385 32.1285 138.723 33.1269C133.361 35.1377 133.361 39.1593 136.042 39.1593C138.723 39.1593 142.082 37.1392 146.096 36.8818C152.387 36.4784 161.107 36.5673 165.122 37.8189Z" stroke="#141416" stroke-width="2" stroke-linecap="round" stroke-linejoin="round"/>
<path d="M179.867 50.5536C179.197 44.0745 176.063 29.4368 170.895 22.4028C166.462 16.3705 159.089 13.0192 152.798 11.6787" stroke="#141416" stroke-width="2" stroke-linecap="round" stroke-linejoin="round"/>
<path d="M178.27 47.873C176.482 43.4047 172.219 36.1032 166.464 31.7869C163.783 29.7761 157.751 27.0951 154.811 26.4248" stroke="#141416" stroke-width="2" stroke-linecap="round" stroke-linejoin="round"/>
<path d="M160.171 60.6062C155.256 63.7341 145.425 69.0514 145.425 65.298C145.425 60.6062 152.128 49.2118 166.874 47.8713C178.67 46.7989 180.538 53.2338 181.879 55.915" stroke="#141416" stroke-width="2" stroke-linecap="round" stroke-linejoin="round"/>
<path d="M184.972 79.3751C181.219 75.0855 177.153 72.2257 175.589 71.332C178.717 75.3536 184.972 84.335 184.972 88.0885C184.972 91.8677 188.567 91.2981 189.218 90.2329C189.375 89.9758 189.361 89.6897 189.083 89.429C188.449 85.8926 187.211 81.9341 184.972 79.3751Z" fill="#141416"/>
<path d="M130.007 59.2665C135.369 56.0493 140.731 55.245 142.742 55.245C137.639 53.9045 129.069 57.6579 125.316 59.2665C120.624 61.2773 120.624 63.9583 120.624 65.9691C120.624 67.9798 123.305 63.288 130.007 59.2665Z" fill="#141416"/>
<path d="M162.18 62.6182C158.158 66.1929 149.981 76.0233 149.445 86.7474" stroke="#141416" stroke-width="2" stroke-linecap="round" stroke-linejoin="round"/>
<path d="M123.306 138.357L128.668 155.784" stroke="#141416" stroke-width="2" stroke-linecap="round" stroke-linejoin="round"/>
<path d="M120.623 142.379C121.964 145.507 124.645 152.031 124.645 153.103" stroke="#141416" stroke-width="2" stroke-linecap="round" stroke-linejoin="round"/>
<path d="M148.773 133.666C144.975 133.443 135.762 134.47 133.617 137.688" stroke="#141416" stroke-width="2" stroke-linecap="round" stroke-linejoin="round"/>
<path d="M159.5 123.612C159.277 122.048 158.428 118.384 156.819 116.239C154.808 113.558 144.754 96.131 142.073 94.7905C139.392 93.45 131.349 98.812 128.668 100.153C125.987 101.493 120.625 102.163 117.944 103.504C115.799 104.576 117.944 117.356 119.285 123.612C129.562 122.494 150.116 119.456 150.116 116.239C150.116 112.217 159.5 121.601 159.5 123.612Z" stroke="#141416" stroke-width="2" stroke-linecap="round" stroke-linejoin="round"/>
<path d="M151.458 120.261C153.022 122.718 154.676 129.108 148.777 135.006C142.879 140.905 136.489 143.273 134.032 143.72C133.585 137.911 131.753 126.293 127.999 126.293" stroke="#141416" stroke-width="2" stroke-linecap="round" stroke-linejoin="round"/>
<ellipse cx="6.03231" cy="8.04309" rx="6.03231" ry="8.04309" transform="matrix(-0.946158 -0.323706 -0.323706 0.946158 130.676 81.9395)" fill="#141416"/>
<ellipse cx="2.26745" cy="3.02327" rx="2.26745" ry="3.02327" transform="matrix(-0.946158 -0.323706 -0.323706 0.946158 123.973 84.8643)" fill="#FAFAFA"/>
<ellipse cx="6.03231" cy="8.04309" rx="6.03231" ry="8.04309" transform="matrix(-0.946158 -0.323706 -0.323706 0.946158 174.918 98.0254)" fill="#141416"/>
<ellipse cx="2.26745" cy="3.02327" rx="2.26745" ry="3.02327" transform="matrix(-0.946158 -0.323706 -0.323706 0.946158 168.211 100.95)" fill="#FAFAFA"/>
<path d="M362.84 10.1148C369.397 4.62515 371.906 1.84306 370.713 1.39594C370.092 1.17238 369.819 1.22204 368.726 1.74367C366.615 2.78695 358.94 9.34475 358.94 10.1148C358.94 11.1829 361.523 11.2077 362.84 10.1148Z" fill="#4F4F4F"/>
<path d="M345.626 10.3135C346.446 9.76703 346.396 9.66767 343.217 6.21493C341.528 4.35181 340.137 3.18434 339.119 2.73722C337.728 2.11622 337.057 2.96083 337.604 3.65635C342.273 9.66767 344.211 11.2574 345.626 10.3135Z" fill="#4F4F4F"/>
<path d="M367.733 18.4113C366.218 17.9642 358.468 15.505 357.897 15.2815C357.624 15.1821 357.425 14.6853 357.326 13.8408C356.506 7.53144 355.214 1.04808 354.643 0.327727C354.221 -0.21875 352.78 -0.0448713 352.383 0.576126C351.985 1.19712 350.147 7.48176 349.054 12.0523L348.334 15.0331C334.226 19.5043 333.456 19.4049 339.839 21.3673L345.478 23.106C348.682 24.0996 348.756 24.1242 348.93 24.9191C349.178 26.0617 350.793 31.6261 351.414 34.284C352.73 39.9972 355.413 36.4699 357.773 25.8384L358.319 23.4041C358.617 23.3544 360.505 23.1806 368.652 21.4169C370.515 20.9947 369.968 19.0571 367.733 18.4113ZM364.206 19.6285C364.007 19.8023 358.567 21.1189 357.499 21.1189C356.208 21.1189 355.91 21.7399 354.444 27.5772C353.475 31.4274 353.401 31.5017 352.855 29.2661C352.184 26.4592 350.818 23.1806 350.644 22.4105C350.495 21.715 349.104 21.2182 343.714 19.9265C341.007 19.2807 340.584 19.0571 341.603 18.7591C342.869 18.3865 348.955 16.3993 349.65 16.3993C350.321 16.3993 350.892 15.9025 351.091 15.1573L353.028 7.60596C353.376 6.28945 353.376 6.28945 354.345 11.4313C355.463 17.219 355.338 16.9703 357.127 17.3429C359.362 17.8149 364.429 19.4297 364.206 19.6285Z" fill="#4F4F4F"/>
<path d="M359.685 26.2359C359.685 26.7823 366.242 33.4146 367.161 33.7872C369.099 34.5821 369.596 33.5385 368.056 31.8743C363.908 27.3286 359.685 24.4971 359.685 26.2359Z" fill="#4F4F4F"/>
<path d="M340.559 27.8256C335.79 31.0548 335.244 31.8 337.629 31.8C338.796 31.8 346.173 26.683 345.949 26.0123C345.602 24.969 343.937 25.5155 340.559 27.8256Z" fill="#4F4F4F"/>
<path d="M22.4094 184.561C26.6629 181 28.2901 179.195 27.5168 178.905C27.114 178.76 26.9368 178.793 26.2279 179.131C24.8584 179.808 19.8799 184.061 19.8799 184.561C19.8799 185.254 21.5555 185.27 22.4094 184.561Z" fill="#3B4147"/>
<path d="M11.2442 184.69C11.7758 184.335 11.7436 184.271 9.68135 182.031C8.58577 180.823 7.68359 180.066 7.02302 179.775C6.12077 179.373 5.68575 179.921 6.0402 180.372C9.06911 184.271 10.3258 185.302 11.2442 184.69Z" fill="#3B4147"/>
<path d="M25.5834 189.942C24.6006 189.652 19.574 188.057 19.2034 187.912C19.0262 187.848 18.8973 187.526 18.8328 186.978C18.3012 182.885 17.4632 178.68 17.0926 178.213C16.8187 177.858 15.8843 177.971 15.6265 178.374C15.3687 178.777 14.1765 182.853 13.4676 185.818L13.0005 187.751C3.84908 190.651 3.3496 190.587 7.49025 191.86L11.1477 192.988C13.226 193.632 13.2742 193.648 13.387 194.164C13.5481 194.905 14.5954 198.514 14.9981 200.238C15.8521 203.944 17.5923 201.656 19.1229 194.76L19.4773 193.181C19.6706 193.149 20.895 193.036 26.1795 191.892C27.3879 191.618 27.0334 190.361 25.5834 189.942ZM23.2956 190.732C23.1667 190.845 19.6383 191.699 18.9455 191.699C18.1077 191.699 17.9143 192.102 16.9637 195.888C16.3354 198.385 16.2872 198.434 15.9328 196.983C15.4978 195.163 14.6115 193.036 14.4987 192.537C14.402 192.085 13.4998 191.763 10.0036 190.925C8.24751 190.506 7.97361 190.361 8.6341 190.168C9.45579 189.926 13.4031 188.637 13.8542 188.637C14.2892 188.637 14.6598 188.315 14.7887 187.832L16.0454 182.934C16.271 182.08 16.2711 182.08 16.8995 185.415C17.6245 189.169 17.5438 189.008 18.7038 189.249C20.1538 189.556 23.4406 190.603 23.2956 190.732Z" fill="#3B4147"/>
<path d="M20.3633 195.018C20.3633 195.372 24.6167 199.674 25.2128 199.916C26.4695 200.432 26.7918 199.755 25.7929 198.675C23.1022 195.727 20.3633 193.89 20.3633 195.018Z" fill="#3B4147"/>
<path d="M7.9575 196.049C4.86409 198.144 4.50962 198.627 6.05633 198.627C6.81357 198.627 11.5986 195.308 11.4536 194.873C11.2281 194.196 10.1486 194.551 7.9575 196.049Z" fill="#3B4147"/>
<defs>
<filter id="filter0_f_8702_481" x="90.5664" y="281.562" width="213.688" height="34.5732" filterUnits="userSpaceOnUse" color-interpolation-filters="sRGB">
<feFlood flood-opacity="0" result="BackgroundImageFix"/>
<feBlend mode="normal" in="SourceGraphic" in2="BackgroundImageFix" result="shape"/>
<feGaussianBlur stdDeviation="2" result="effect1_foregroundBlur_8702_481"/>
</filter>
</defs>
</svg>
