<svg width="420" height="662" viewBox="0 0 420 662" fill="none" xmlns="http://www.w3.org/2000/svg">
<g filter="url(#filter0_f_9416_20354)">
<path d="M212.042 481.805C229.201 479.124 235.278 482.922 236.171 485.156C239.925 494.54 265.393 501.511 269.683 494.54C273.033 494.54 295.154 491.189 299.846 496.551C304.538 501.913 267.675 507.275 259.631 507.275C251.588 507.275 230.139 505.264 204.669 507.275C179.2 509.286 169.816 493.87 131.611 496.551C93.4067 499.232 94.0769 493.199 94.7472 491.189C95.4174 489.178 130.271 485.156 146.357 485.156C162.443 485.156 190.594 485.156 212.042 481.805Z" fill="#E7E7E7"/>
</g>
<path d="M214.723 422.822C221.694 423.894 224.107 420.587 228.128 418.13C217.404 416.119 210.702 414.108 203.999 406.065C201.252 402.768 197.967 393.33 197.967 383.276C197.967 375.431 200.648 360.488 212.713 332.337C222.936 308.481 215.181 284.364 211.405 274.159C211.129 271.712 210.681 269.981 210.031 269.332C209.108 268.409 209.969 270.277 211.405 274.159C212.553 284.343 210.723 306.934 208.021 315.58C204.822 325.816 194.821 339.07 188.583 358.477C182.551 377.244 182.551 396.682 188.583 406.065C196.728 418.735 206.01 421.481 214.723 422.822Z" fill="#DCDCDC" stroke="#DCDCDC"/>
<path d="M146.357 427.513C151.719 429.121 168.252 429.97 175.849 430.194C171.157 428.183 139.655 423.491 122.228 412.767C104.801 402.043 98.0988 391.989 88.0449 376.573C80.0019 364.24 75.3101 336.358 75.9803 328.314C74.193 333.677 71.9588 342.39 71.9588 353.784C71.9588 365.179 71.9588 370.541 80.0019 385.286C85.6071 395.563 95.4178 406.064 106.142 412.767C116.622 419.317 139.655 425.502 146.357 427.513Z" fill="#DCDCDC"/>
<path d="M59.2236 286.088C54.0896 279.029 47.159 263.97 42.4672 253.916C44.478 275.364 49.1698 303.515 67.2667 315.58L71.9585 298.153C68.8306 295.919 64.5857 293.461 59.2236 286.088Z" fill="#DCDCDC"/>
<path d="M215.393 361.156C227.458 365.178 236.395 362.72 246.896 363.167C240.193 365.848 229.687 370.318 226.788 371.21C218.074 373.891 199.307 376.572 199.307 371.21C199.307 367.993 202.882 357.582 204.669 353.113C204.669 353.113 207.35 358.475 215.393 361.156Z" fill="#DCDCDC"/>
<path d="M144.025 293.526C143.91 293.227 143.789 292.98 143.676 292.791C143.72 292.993 143.842 293.24 144.025 293.526C144.59 294.997 145.012 297.715 143.676 300.834C141.665 305.526 126.92 314.239 119.547 317.591C118.206 318.2 147.027 316.25 149.709 312.228C151.854 309.011 150.826 309.771 153.06 310.218L158.422 315.58C157.68 312.005 152.397 305.315 149.709 300.834C148 297.987 145.054 295.14 144.025 293.526Z" fill="#DCDCDC"/>
<path d="M256.279 413.436C252.526 414.509 235.724 416.788 228.798 418.128C233.043 416.341 245.287 413.034 252.258 411.426C260.971 409.415 285.77 398.691 291.132 396.01C293.813 397.35 297.164 396.01 298.505 397.35C299.845 398.691 293.143 403.383 291.132 404.053C289.121 404.723 260.971 412.096 256.279 413.436Z" fill="#DCDCDC"/>
<path d="M301.857 351.774C301.857 349.629 299.623 342.39 298.506 339.039C297.165 343.731 282.528 361.028 279.068 365.179C275.717 369.201 220.086 414.108 221.426 413.438C222.767 412.767 248.236 398.022 252.928 394C255.669 391.651 279.738 375.233 284.43 370.541C288.251 366.72 301.857 354.455 301.857 351.774Z" fill="#DCDCDC"/>
<path d="M260.301 350.433L271.695 328.314C269.908 328.761 263.92 331.666 262.312 331.666C260.703 331.666 256.726 333.9 254.939 335.017C253.822 336.804 251.185 344.133 249.577 345.741C247.968 347.35 248.907 346.188 249.577 347.082L260.301 350.433Z" fill="#DCDCDC"/>
<path d="M238.182 389.979C244.438 380.595 251.364 367.86 253.598 362.498C250.247 363.392 245.718 364.346 242.874 367.19C240.193 369.871 238.852 377.244 232.82 391.319C231.949 393.351 224.777 406.288 221.426 412.097C227.011 405.171 234.965 394.804 238.182 389.979Z" fill="#DCDCDC"/>
<path d="M143.006 328.985C145.687 328.449 148.591 329.209 149.708 329.655C147.698 331.219 143.542 334.481 143.006 335.018C142.47 335.554 136.974 337.922 134.293 339.039L133.622 335.688C133.622 334.571 134.024 332.203 135.633 331.666C137.644 330.996 139.655 329.655 143.006 328.985Z" fill="#DCDCDC"/>
<path d="M171.827 247.883C178.261 248.42 180.316 250.788 181.209 251.905C181.88 251.234 180.272 248.688 179.199 246.543C177.859 243.861 171.156 243.191 167.805 243.191C161.102 243.191 154.696 246.714 153.059 247.883C148.368 251.234 147.697 255.256 147.027 256.597C146.357 257.937 145.687 261.288 146.357 261.959C147.027 262.629 149.708 261.959 149.708 261.288C149.708 260.618 150.379 257.267 153.73 253.916C157.081 250.564 163.784 247.213 171.827 247.883Z" fill="#DCDCDC"/>
<path d="M169.146 215.041C166.465 211.288 156.858 208.115 152.389 206.998C151.496 207.668 151.853 208.607 155.07 209.679C159.092 211.02 169.146 217.722 169.146 224.425C169.146 232.158 168.922 237.83 167.135 239.841C170.263 242.075 178.529 245.203 178.529 239.841C178.529 233.138 172.497 219.733 169.146 215.041Z" fill="#DCDCDC"/>
<path d="M93.814 261.29C90.0158 261.066 79.6045 257.938 68.3442 247.214C57.0839 236.49 47.5662 222.638 44.2149 217.053C43.9915 231.575 44.0809 261.29 46.2257 263.971C48.9067 267.322 40.1934 251.236 40.1934 247.214C40.1934 243.193 45.5554 291.451 56.9498 304.856C66.0653 315.581 68.3442 316.474 68.3442 315.581" stroke="#141416" stroke-width="2" stroke-linecap="round" stroke-linejoin="round"/>
<path d="M72.3657 278.046C67.6739 275.141 57.0839 265.043 52.258 247.884C47.4322 230.726 44.8852 220.627 44.2149 217.723" stroke="#141416" stroke-width="2" stroke-linecap="round" stroke-linejoin="round"/>
<path d="M280.15 354.453C269.65 356.911 246.101 363.166 235.913 368.529C225.726 373.891 207.092 374.784 199.049 374.561" stroke="#141416" stroke-width="2" stroke-linecap="round" stroke-linejoin="round"/>
<path d="M213.795 329.654C226.306 337.921 257.094 354.454 280.15 354.454" stroke="#141416" stroke-width="2" stroke-linecap="round" stroke-linejoin="round"/>
<path d="M211.114 353.113C229.658 355.124 269.024 358.341 278.14 355.124" stroke="#141416" stroke-width="2" stroke-linecap="round" stroke-linejoin="round"/>
<path d="M228.541 361.827C234.796 362.497 249.587 363.167 258.702 360.486" stroke="#141416" stroke-width="2" stroke-linecap="round" stroke-linejoin="round"/>
<path d="M229.469 418.131C247.343 415.003 276.798 408.747 288.191 404.725C293.555 402.832 300.926 401.374 298.916 391.32C296.905 381.266 294.896 373.894 291.544 373.223C288.191 372.553 271.662 387.317 262.053 394.001C246.637 404.725 231.221 412.098 225.859 413.439C221.569 414.511 214.688 413.886 211.783 413.439" stroke="#141416" stroke-width="2" stroke-linecap="round" stroke-linejoin="round"/>
<path d="M294.896 375.234C298.247 372.329 304.548 365.046 302.939 359.147C299.723 333.946 291.321 321.39 287.522 318.262C283.501 320.943 276.128 339.71 274.117 343.061C272.121 346.388 270.201 349.735 268.344 353.041M216.475 415.449C217.592 414.555 220.362 412.5 222.507 411.427C225.188 410.087 237.654 397.621 245.296 389.979C251.709 383.566 258.195 371.342 265.663 357.853" stroke="#141416" stroke-width="2" stroke-linecap="round" stroke-linejoin="round"/>
<path d="M242.874 365.18C239.076 376.797 228.673 403.786 218.486 413.438" stroke="#141416" stroke-width="2"/>
<path d="M281.749 326.305C275.27 327.869 257.361 332.337 254.68 335.018C251.999 337.699 249.988 344.178 248.647 346.412" stroke="#141416" stroke-width="2" stroke-linecap="round" stroke-linejoin="round"/>
<path d="M164.195 430.193C193.686 433.411 220.72 423.044 230.55 417.458C227.199 415.671 217.764 417.175 211.783 413.437C201.059 406.734 188.994 391.318 206.421 348.422C223.848 305.526 217.145 280.726 209.102 267.991C202.052 256.829 177.6 240.511 154.811 235.819C132.022 231.127 111.915 244.724 101.191 253.916C73.7101 280.726 67.0076 313.569 65.667 336.357C64.3265 359.146 81.3064 389.531 82.4235 390.648C104.542 419.469 127.331 426.172 164.195 430.193Z" stroke="#141416" stroke-width="2" stroke-linecap="round" stroke-linejoin="round"/>
<path d="M280.819 497.891C270.095 490.965 247.172 477.113 241.274 477.113" stroke="#141416" stroke-width="2" stroke-linecap="round" stroke-linejoin="round"/>
<path d="M267.414 499.901C237.475 473.761 173.712 419.605 158.162 412.098" stroke="#141416" stroke-width="2" stroke-linecap="round" stroke-linejoin="round"/>
<path d="M260.041 502.583C243.285 481.805 205.75 438.372 189.664 430.865" stroke="#141416" stroke-width="2" stroke-linecap="round" stroke-linejoin="round"/>
<path d="M234.571 466.389C235.912 469.07 238.593 474.7 238.593 475.772" stroke="#141416" stroke-width="2" stroke-linecap="round" stroke-linejoin="round"/>
<path d="M193.422 259.279C193.422 257.268 189.76 246.631 189.4 241.953C188.73 233.24 191.377 218.369 193.422 214.473C193.566 214.198 193.705 213.94 193.835 213.701C191.767 216.836 187.324 224.645 186.096 230.803C185.232 235.82 184.405 241.938 185.232 245.874C185.935 249.218 187.913 253.917 189.924 256.598L189.947 256.628C190.567 257.456 193.422 261.264 193.422 259.279Z" fill="#DCDCDC"/>
<path d="M164.454 236.491C168.616 237.531 173.838 242.523 174.508 242.523C173.838 240.512 169.146 236.625 166.465 234.48C163.113 231.799 161.103 232.469 158.422 231.799C155.741 231.129 148.368 233.139 146.216 233.139C144.717 233.139 134.821 234.48 134.151 234.48C133.481 234.48 134.963 237.831 136.973 238.501C138.984 239.172 139.654 238.501 145.016 237.161C150.379 235.82 159.092 235.15 164.454 236.491Z" fill="#DCDCDC"/>
<path d="M136.044 434.217C143.194 445.388 157.618 470.411 154.4 475.773" stroke="#141416" stroke-width="2" stroke-linecap="round" stroke-linejoin="round"/>
<path d="M125.322 428.184C134.259 440.918 152.401 467.595 153.473 472.421C154.546 477.246 153.92 477.112 153.473 476.442" stroke="#141416" stroke-width="2" stroke-linecap="round" stroke-linejoin="round"/>
<path d="M170.228 479.123C165.536 477.336 152.773 477.719 138.725 476.442C123.98 475.102 115.49 476.442 112.585 475.102" stroke="#141416" stroke-width="2" stroke-linecap="round" stroke-linejoin="round"/>
<path d="M151.458 478.453C145.649 478.453 132.556 478.453 126.658 478.453C120.76 478.453 112.583 479.347 109.231 479.794" stroke="#141416" stroke-width="2" stroke-linecap="round" stroke-linejoin="round"/>
<path d="M193.684 258.61C192.345 253.918 189.663 246.545 189.663 237.832C189.663 228.89 193.689 212.036 195.696 211.021C200.519 208.583 184.49 217.054 181.618 229.118C178.268 243.193 180.725 249.449 181.618 251.237" stroke="#141416" stroke-width="2" stroke-linecap="round" stroke-linejoin="round"/>
<path d="M177.599 243.861C175.062 240.962 170.921 236.296 165.123 233.137M165.123 233.137C163.773 232.401 160.789 230.95 159.502 230.456C149.037 226.435 141.387 227.447 138.724 228.445C133.362 230.456 133.362 234.478 136.043 234.478C138.724 234.478 142.084 232.458 146.097 232.2C152.389 231.797 161.109 231.886 165.123 233.137Z" stroke="#141416" stroke-width="2" stroke-linecap="round" stroke-linejoin="round"/>
<path d="M179.869 245.873C179.199 239.394 176.065 224.756 170.897 217.722C166.464 211.69 159.091 208.339 152.8 206.998" stroke="#141416" stroke-width="2" stroke-linecap="round" stroke-linejoin="round"/>
<path d="M178.27 243.192C176.482 238.724 172.219 231.423 166.464 227.106C163.783 225.095 157.751 222.414 154.811 221.744" stroke="#141416" stroke-width="2" stroke-linecap="round" stroke-linejoin="round"/>
<path d="M160.172 255.927C155.257 259.054 145.426 264.372 145.426 260.618C145.426 255.927 152.129 244.532 166.875 243.192C178.671 242.119 180.539 248.554 181.88 251.235" stroke="#141416" stroke-width="2" stroke-linecap="round" stroke-linejoin="round"/>
<path d="M184.973 274.693C181.219 270.404 177.153 267.544 175.589 266.65C178.717 270.672 184.973 279.653 184.973 283.407C184.973 287.186 188.567 286.616 189.218 285.551C189.375 285.294 189.361 285.008 189.083 284.747C188.449 281.211 187.212 277.253 184.973 274.693Z" fill="#141416"/>
<path d="M130.009 254.587C135.371 251.37 140.733 250.565 142.744 250.565C137.641 249.225 129.071 252.978 125.317 254.587C120.626 256.598 120.626 259.279 120.626 261.289C120.626 263.3 123.307 258.608 130.009 254.587Z" fill="#141416"/>
<path d="M162.182 257.938C158.16 261.512 149.983 271.343 149.447 282.067" stroke="#141416" stroke-width="2" stroke-linecap="round" stroke-linejoin="round"/>
<path d="M123.306 333.676L128.668 351.102" stroke="#141416" stroke-width="2" stroke-linecap="round" stroke-linejoin="round"/>
<path d="M120.625 337.697C121.966 340.825 124.647 347.349 124.647 348.421" stroke="#141416" stroke-width="2" stroke-linecap="round" stroke-linejoin="round"/>
<path d="M148.776 328.986C144.978 328.763 135.764 329.791 133.62 333.008" stroke="#141416" stroke-width="2" stroke-linecap="round" stroke-linejoin="round"/>
<path d="M159.501 318.931C159.278 317.367 158.429 313.703 156.82 311.558C154.809 308.877 144.755 291.45 142.074 290.11C139.393 288.769 131.35 294.131 128.669 295.472C125.988 296.812 120.626 297.483 117.945 298.823C115.8 299.896 117.945 312.675 119.286 318.931C129.563 317.814 150.117 314.775 150.117 311.558C150.117 307.537 159.501 316.92 159.501 318.931Z" stroke="#141416" stroke-width="2" stroke-linecap="round" stroke-linejoin="round"/>
<path d="M151.458 315.58C153.022 318.038 154.675 324.427 148.777 330.326C142.878 336.224 136.489 338.592 134.031 339.039C133.584 333.23 131.752 321.612 127.999 321.612" stroke="#141416" stroke-width="2" stroke-linecap="round" stroke-linejoin="round"/>
<ellipse cx="6.03231" cy="8.04309" rx="6.03231" ry="8.04309" transform="matrix(-0.946158 -0.323706 -0.323706 0.946158 130.679 277.26)" fill="#141416"/>
<ellipse cx="2.26745" cy="3.02327" rx="2.26745" ry="3.02327" transform="matrix(-0.946158 -0.323706 -0.323706 0.946158 123.977 280.184)" fill="#FAFAFA"/>
<ellipse cx="6.03231" cy="8.04309" rx="6.03231" ry="8.04309" transform="matrix(-0.946158 -0.323706 -0.323706 0.946158 174.92 293.346)" fill="#141416"/>
<ellipse cx="2.26745" cy="3.02327" rx="2.26745" ry="3.02327" transform="matrix(-0.946158 -0.323706 -0.323706 0.946158 168.215 296.27)" fill="#FAFAFA"/>
<path d="M304.84 88.1148C311.397 82.6252 313.906 79.8431 312.713 79.3959C312.092 79.1724 311.819 79.222 310.726 79.7437C308.615 80.7869 300.94 87.3448 300.94 88.1148C300.94 89.1829 303.523 89.2077 304.84 88.1148Z" fill="#4F4F4F"/>
<path d="M287.626 88.3135C288.446 87.767 288.396 87.6677 285.217 84.2149C283.528 82.3518 282.137 81.1843 281.119 80.7372C279.728 80.1162 279.057 80.9608 279.604 81.6563C284.273 87.6677 286.211 89.2574 287.626 88.3135Z" fill="#4F4F4F"/>
<path d="M309.733 96.4113C308.218 95.9642 300.468 93.505 299.897 93.2815C299.624 93.1821 299.425 92.6853 299.326 91.8408C298.506 85.5314 297.214 79.0481 296.643 78.3277C296.221 77.7812 294.78 77.9551 294.383 78.5761C293.985 79.1971 292.147 85.4818 291.054 90.0523L290.334 93.0331C276.226 97.5043 275.456 97.4049 281.839 99.3673L287.478 101.106C290.682 102.1 290.756 102.124 290.93 102.919C291.178 104.062 292.793 109.626 293.414 112.284C294.73 117.997 297.413 114.47 299.773 103.838L300.319 101.404C300.617 101.354 302.505 101.181 310.652 99.4169C312.515 98.9947 311.968 97.0571 309.733 96.4113ZM306.206 97.6285C306.007 97.8023 300.567 99.1189 299.499 99.1189C298.208 99.1189 297.91 99.7399 296.444 105.577C295.475 109.427 295.401 109.502 294.855 107.266C294.184 104.459 292.818 101.181 292.644 100.411C292.495 99.715 291.104 99.2182 285.714 97.9265C283.007 97.2807 282.584 97.0571 283.603 96.7591C284.869 96.3865 290.955 94.3993 291.65 94.3993C292.321 94.3993 292.892 93.9025 293.091 93.1573L295.028 85.606C295.376 84.2894 295.376 84.2894 296.345 89.4313C297.463 95.219 297.338 94.9703 299.127 95.3429C301.362 95.8149 306.429 97.4297 306.206 97.6285Z" fill="#4F4F4F"/>
<path d="M301.685 104.236C301.685 104.782 308.242 111.415 309.161 111.787C311.099 112.582 311.596 111.539 310.056 109.874C305.908 105.329 301.685 102.497 301.685 104.236Z" fill="#4F4F4F"/>
<path d="M282.559 105.826C277.79 109.055 277.244 109.8 279.629 109.8C280.796 109.8 288.173 104.683 287.949 104.012C287.602 102.969 285.937 103.516 282.559 105.826Z" fill="#4F4F4F"/>
<path d="M371.409 547.561C375.663 544 377.29 542.195 376.517 541.905C376.114 541.76 375.937 541.793 375.228 542.131C373.858 542.808 368.88 547.061 368.88 547.561C368.88 548.254 370.556 548.27 371.409 547.561Z" fill="#3B4147"/>
<path d="M360.244 547.69C360.776 547.335 360.744 547.271 358.681 545.031C357.586 543.823 356.684 543.066 356.023 542.775C355.121 542.373 354.686 542.921 355.04 543.372C358.069 547.271 359.326 548.302 360.244 547.69Z" fill="#3B4147"/>
<path d="M374.583 552.942C373.601 552.652 368.574 551.057 368.203 550.912C368.026 550.848 367.897 550.526 367.833 549.978C367.301 545.885 366.463 541.68 366.093 541.213C365.819 540.858 364.884 540.971 364.626 541.374C364.369 541.777 363.176 545.853 362.468 548.818L362 550.751C352.849 553.651 352.35 553.587 356.49 554.86L360.148 555.988C362.226 556.632 362.274 556.648 362.387 557.164C362.548 557.905 363.595 561.514 363.998 563.238C364.852 566.944 366.592 564.656 368.123 557.76L368.477 556.181C368.671 556.149 369.895 556.036 375.18 554.892C376.388 554.618 376.033 553.361 374.583 552.942ZM372.296 553.732C372.167 553.845 368.638 554.699 367.945 554.699C367.108 554.699 366.914 555.102 365.964 558.888C365.335 561.385 365.287 561.434 364.933 559.983C364.498 558.163 363.611 556.036 363.499 555.537C363.402 555.085 362.5 554.763 359.004 553.925C357.248 553.506 356.974 553.361 357.634 553.168C358.456 552.926 362.403 551.637 362.854 551.637C363.289 551.637 363.66 551.315 363.789 550.832L365.045 545.934C365.271 545.08 365.271 545.08 365.899 548.415C366.624 552.169 366.544 552.008 367.704 552.249C369.154 552.556 372.441 553.603 372.296 553.732Z" fill="#3B4147"/>
<path d="M369.363 558.018C369.363 558.372 373.617 562.674 374.213 562.916C375.47 563.432 375.792 562.755 374.793 561.675C372.102 558.727 369.363 556.89 369.363 558.018Z" fill="#3B4147"/>
<path d="M356.958 559.049C353.864 561.144 353.51 561.627 355.056 561.627C355.814 561.627 360.599 558.308 360.454 557.873C360.228 557.196 359.149 557.551 356.958 559.049Z" fill="#3B4147"/>
<defs>
<filter id="filter0_f_9416_20354" x="90.5713" y="476.883" width="213.686" height="34.5742" filterUnits="userSpaceOnUse" color-interpolation-filters="sRGB">
<feFlood flood-opacity="0" result="BackgroundImageFix"/>
<feBlend mode="normal" in="SourceGraphic" in2="BackgroundImageFix" result="shape"/>
<feGaussianBlur stdDeviation="2" result="effect1_foregroundBlur_9416_20354"/>
</filter>
</defs>
</svg>
