<svg width="584" height="679" viewBox="0 0 584 679" fill="none" xmlns="http://www.w3.org/2000/svg">
<path d="M189.183 171H187V166.337H188.019C189.619 166.337 190.767 165.937 191.462 165.135C192.157 164.35 192.505 163.033 192.505 161.184V155.147C192.505 153.348 192.99 151.973 193.96 151.025C194.946 150.059 196.49 149.438 198.592 149.16V148.84C196.49 148.562 194.946 147.941 193.96 146.975C192.99 146.01 192.505 144.628 192.505 142.828V136.816C192.505 134.967 192.157 133.65 191.462 132.865C190.783 132.063 189.635 131.663 188.019 131.663H187V127H189.183C192.432 127 194.801 127.703 196.288 129.11C197.776 130.517 198.519 132.734 198.519 135.761V140.963C198.519 142.845 198.923 144.17 199.732 144.939C200.556 145.691 201.979 146.067 204 146.067V151.908C201.979 151.924 200.556 152.309 199.732 153.061C198.923 153.814 198.519 155.131 198.519 157.012V162.19C198.519 165.217 197.767 167.442 196.264 168.865C194.76 170.288 192.4 171 189.183 171Z" fill="#141416"/>
<path d="M365.183 251H363V246.337H364.019C365.619 246.337 366.767 245.937 367.462 245.135C368.157 244.35 368.505 243.033 368.505 241.184V235.147C368.505 233.348 368.99 231.973 369.96 231.025C370.946 230.059 372.49 229.438 374.592 229.16V228.84C372.49 228.562 370.946 227.941 369.96 226.975C368.99 226.01 368.505 224.628 368.505 222.828V216.816C368.505 214.967 368.157 213.65 367.462 212.865C366.783 212.063 365.635 211.663 364.019 211.663H363V207H365.183C368.432 207 370.801 207.703 372.288 209.11C373.776 210.517 374.519 212.734 374.519 215.761V220.963C374.519 222.845 374.923 224.17 375.732 224.939C376.556 225.691 377.979 226.067 380 226.067V231.908C377.979 231.924 376.556 232.309 375.732 233.061C374.923 233.814 374.519 235.131 374.519 237.012V242.19C374.519 245.217 373.767 247.442 372.264 248.865C370.76 250.288 368.4 251 365.183 251Z" fill="#141416"/>
<path d="M16.1826 670H14V665.337H15.0185C16.6191 665.337 17.767 664.937 18.4622 664.135C19.1574 663.35 19.505 662.033 19.505 660.184V654.147C19.505 652.348 19.99 650.973 20.9601 650.025C21.9463 649.059 23.4903 648.438 25.592 648.16V647.84C23.4903 647.562 21.9463 646.941 20.9601 645.975C19.99 645.01 19.505 643.628 19.505 641.828V635.816C19.505 633.967 19.1574 632.65 18.4622 631.865C17.7832 631.063 16.6353 630.663 15.0185 630.663H14V626H16.1826C19.4322 626 21.8008 626.703 23.2882 628.11C24.7756 629.517 25.5193 631.734 25.5193 634.761V639.963C25.5193 641.845 25.9234 643.17 26.7318 643.939C27.5563 644.691 28.9791 645.067 31 645.067V650.908C28.9791 650.924 27.5563 651.309 26.7318 652.061C25.9234 652.814 25.5193 654.131 25.5193 656.012V661.19C25.5193 664.217 24.7675 666.442 23.2639 667.865C21.7603 669.288 19.3999 670 16.1826 670Z" fill="#141416"/>
<path d="M189.183 566H187V561.337H188.019C189.619 561.337 190.767 560.937 191.462 560.135C192.157 559.35 192.505 558.033 192.505 556.184V550.147C192.505 548.348 192.99 546.973 193.96 546.025C194.946 545.059 196.49 544.438 198.592 544.16V543.84C196.49 543.562 194.946 542.941 193.96 541.975C192.99 541.01 192.505 539.628 192.505 537.828V531.816C192.505 529.967 192.157 528.65 191.462 527.865C190.783 527.063 189.635 526.663 188.019 526.663H187V522H189.183C192.432 522 194.801 522.703 196.288 524.11C197.776 525.517 198.519 527.734 198.519 530.761V535.963C198.519 537.845 198.923 539.17 199.732 539.939C200.556 540.691 201.979 541.067 204 541.067V546.908C201.979 546.924 200.556 547.309 199.732 548.061C198.923 548.814 198.519 550.131 198.519 552.012V557.19C198.519 560.217 197.767 562.442 196.264 563.865C194.76 565.288 192.4 566 189.183 566Z" fill="#141416"/>
<path d="M365.183 503H363V498.337H364.019C365.619 498.337 366.767 497.937 367.462 497.135C368.157 496.35 368.505 495.033 368.505 493.184V487.147C368.505 485.348 368.99 483.973 369.96 483.025C370.946 482.059 372.49 481.438 374.592 481.16V480.84C372.49 480.562 370.946 479.941 369.96 478.975C368.99 478.01 368.505 476.628 368.505 474.828V468.816C368.505 466.967 368.157 465.65 367.462 464.865C366.783 464.063 365.635 463.663 364.019 463.663H363V459H365.183C368.432 459 370.801 459.703 372.288 461.11C373.776 462.517 374.519 464.734 374.519 467.761V472.963C374.519 474.845 374.923 476.17 375.732 476.939C376.556 477.691 377.979 478.067 380 478.067V483.908C377.979 483.924 376.556 484.309 375.732 485.061C374.923 485.814 374.519 487.131 374.519 489.012V494.19C374.519 497.217 373.767 499.442 372.264 500.865C370.76 502.288 368.4 503 365.183 503Z" fill="#141416"/>
<path d="M554.183 368H552V363.337H553.019C554.619 363.337 555.767 362.937 556.462 362.135C557.157 361.35 557.505 360.033 557.505 358.184V352.147C557.505 350.348 557.99 348.973 558.96 348.025C559.946 347.059 561.49 346.438 563.592 346.16V345.84C561.49 345.562 559.946 344.941 558.96 343.975C557.99 343.01 557.505 341.628 557.505 339.828V333.816C557.505 331.967 557.157 330.65 556.462 329.865C555.783 329.063 554.635 328.663 553.019 328.663H552V324H554.183C557.432 324 559.801 324.703 561.288 326.11C562.776 327.517 563.519 329.734 563.519 332.761V337.963C563.519 339.845 563.923 341.17 564.732 341.939C565.556 342.691 566.979 343.067 569 343.067V348.908C566.979 348.924 565.556 349.309 564.732 350.061C563.923 350.814 563.519 352.131 563.519 354.012V359.19C563.519 362.217 562.767 364.442 561.264 365.865C559.76 367.288 557.4 368 554.183 368Z" fill="#141416"/>
<path d="M16.1826 54H14V49.3374H15.0185C16.6191 49.3374 17.767 48.9366 18.4622 48.135C19.1574 47.3497 19.505 46.0327 19.505 44.184V38.1472C19.505 36.3476 19.99 34.9734 20.9601 34.0245C21.9463 33.0593 23.4903 32.4376 25.592 32.1595V31.8405C23.4903 31.5624 21.9463 30.9407 20.9601 29.9755C19.99 29.0102 19.505 27.6278 19.505 25.8282V19.816C19.505 17.9673 19.1574 16.6503 18.4622 15.865C17.7832 15.0634 16.6353 14.6626 15.0185 14.6626H14V10H16.1826C19.4322 10 21.8008 10.7035 23.2882 12.1104C24.7756 13.5174 25.5193 15.7342 25.5193 18.7607V23.9632C25.5193 25.8446 25.9234 27.1697 26.7318 27.9387C27.5563 28.6912 28.9791 29.0675 31 29.0675V34.908C28.9791 34.9243 27.5563 35.3088 26.7318 36.0613C25.9234 36.8139 25.5193 38.1309 25.5193 40.0123V45.1902C25.5193 48.2168 24.7675 50.4417 23.2639 51.865C21.7603 53.2883 19.3999 54 16.1826 54Z" fill="#141416"/>
</svg>
