<svg width="48" height="48" viewBox="0 0 48 48" fill="none" xmlns="http://www.w3.org/2000/svg">
<rect width="48" height="48" rx="24" fill="#F1F1F1"/>
<g clip-path="url(#clip0_16449_4871)">
<path d="M33 27C33 27.5304 32.7893 28.0391 32.4142 28.4142C32.0391 28.7893 31.5304 29 31 29H19L15 33V17C15 16.4696 15.2107 15.9609 15.5858 15.5858C15.9609 15.2107 16.4696 15 17 15H31C31.5304 15 32.0391 15.2107 32.4142 15.5858C32.7893 15.9609 33 16.4696 33 17V27Z" stroke="#1C851C" stroke-width="2" stroke-linecap="round" stroke-linejoin="round"/>
<circle cx="20.5" cy="22.5" r="1.5" fill="#1C851C"/>
<circle cx="24.5" cy="22.5" r="1.5" fill="#1C851C"/>
<circle cx="28.5" cy="22.5" r="1.5" fill="#1C851C"/>
</g>
<defs>
<clipPath id="clip0_16449_4871">
<rect width="24" height="24" fill="white" transform="translate(12 12)"/>
</clipPath>
</defs>
</svg>
