<svg width="48" height="48" viewBox="0 0 48 48" fill="none" xmlns="http://www.w3.org/2000/svg">
    <rect width="48" height="48" rx="24" fill="#F1F1F1"/>
    <g clip-path="url(#clip0_10029_496)">
        <path d="M20.5 29.5 C20.1667 30.8333 19.6667 32 19 33 C16.3333 32 14.3333 30.6667 13 29 C13 24.3333 14 20.3333 16 17 C17.6667 16 19.3333 15.3333 21 15 L22 17 C23.3333 16.6667 24.6667 16.6667 26 17 L27 15 C28.6667 15.3333 30.3333 16 32 17 C34 20.3333 35 24.3333 35 29 C33.6667 30.6667 31.6667 32 29 33 C28.3333 32 27.8333 30.8333 27.5 29.5 M19 29 C22.3333 30.3333 25.6667 30.3333 29 29" stroke="#1C851C" stroke-width="2" stroke-linecap="round" stroke-linejoin="round" />
        <path d="M20 25 C20.55228 25 21 24.5523 21 24 C21 23.4477 20.55228 23 20 23 C19.44772 23 19 23.4477 19 24 C19 24.5523 19.44772 25 20 25Z" stroke="#1C851C" stroke-width="2" stroke-linecap="round" stroke-linejoin="round" />
        <path d="M28 25 C28.5523 25 29 24.5523 29 24 C29 23.4477 28.5523 23 28 23 C27.4477 23 27 23.4477 27 24 C27 24.5523 27.4477 25 28 25Z" stroke="#1C851C" stroke-width="2" stroke-linecap="round" stroke-linejoin="round" />
    </g>
    <defs>
        <clipPath id="clip0_10029_496">
            <rect width="24" height="24" fill="white" transform="translate(12 12)"/>
        </clipPath>
    </defs>
</svg>
