<svg width="24" height="24" viewBox="0 0 24 24" fill="none" xmlns="http://www.w3.org/2000/svg">
<path d="M8.5 17.5C8.16667 18.8333 7.66667 20 7 21C4.33333 20 2.33333 18.6667 1 17C1 12.3333 2 8.33333 4 5C5.66667 4 7.33333 3.33333 9 3L10 5C11.3333 4.66667 12.6667 4.66667 14 5L15 3C16.6667 3.33333 18.3333 4 20 5C22 8.33333 23 12.3333 23 17C21.6667 18.6667 19.6667 20 17 21C16.3333 20 15.8333 18.8333 15.5 17.5M7 17C10.3333 18.3333 13.6667 18.3333 17 17" stroke="#141416" stroke-width="2" stroke-linecap="round" stroke-linejoin="round"/>
<path d="M8 13C8.55228 13 9 12.5523 9 12C9 11.4477 8.55228 11 8 11C7.44772 11 7 11.4477 7 12C7 12.5523 7.44772 13 8 13Z" stroke="#141416" stroke-width="2" stroke-linecap="round" stroke-linejoin="round"/>
<path d="M16 13C16.5523 13 17 12.5523 17 12C17 11.4477 16.5523 11 16 11C15.4477 11 15 11.4477 15 12C15 12.5523 15.4477 13 16 13Z" stroke="#141416" stroke-width="2" stroke-linecap="round" stroke-linejoin="round"/>
</svg>
