<svg width="80" height="80" viewBox="0 0 80 80" fill="none" xmlns="http://www.w3.org/2000/svg">
<path d="M57.7772 30L44.4439 15H26.6661C25.4874 15 24.3569 15.5268 23.5234 16.4645C22.6899 17.4021 22.2217 18.6739 22.2217 20V60C22.2217 61.3261 22.6899 62.5979 23.5234 63.5355C24.3569 64.4732 25.4874 65 26.6661 65H53.3328C54.5115 65 55.642 64.4732 56.4755 63.5355C57.309 62.5979 57.7772 61.3261 57.7772 60V30ZM44.4439 15V30H57.7772" stroke="#1C851C" stroke-width="2.66667" stroke-linecap="round" stroke-linejoin="round"/>
<path d="M38.0556 45.4716C38.5447 46.1255 39.1687 46.6665 39.8853 47.058C40.6019 47.4495 41.3943 47.6824 42.2088 47.7407C43.0232 47.799 43.8407 47.6815 44.6058 47.3961C45.3708 47.1107 46.0656 46.6641 46.6428 46.0866L50.0595 42.67C51.0968 41.596 51.6708 40.1576 51.6578 38.6645C51.6448 37.1714 51.0459 35.7432 49.9901 34.6874C48.9343 33.6316 47.5061 33.0327 46.013 33.0197C44.52 33.0068 43.0815 33.5807 42.0076 34.618L40.0487 36.5655M42.6112 43.1939C42.1221 42.54 41.4981 41.999 40.7815 41.6075C40.0649 41.216 39.2725 40.9831 38.458 40.9248C37.6436 40.8665 36.8261 40.984 36.061 41.2694C35.296 41.5548 34.6012 42.0014 34.024 42.5789L30.6073 45.9955C29.57 47.0695 28.996 48.5079 29.009 50.001C29.022 51.4941 29.6209 52.9223 30.6767 53.9781C31.7324 55.0339 33.1607 55.6328 34.6538 55.6458C36.1468 55.6587 37.5852 55.0848 38.6592 54.0475L40.6067 52.1" stroke="#1C851C" stroke-width="2.66667" stroke-linecap="round" stroke-linejoin="round"/>
</svg>
