<svg width="80" height="80" viewBox="0 0 80 80" fill="none" xmlns="http://www.w3.org/2000/svg">
<path d="M32 32.5H32.0125M32 47.5H32.0125M29.5 27.5H49.5C50.8807 27.5 52 28.6193 52 30V35C52 36.3807 50.8807 37.5 49.5 37.5H29.5C28.1193 37.5 27 36.3807 27 35V30C27 28.6193 28.1193 27.5 29.5 27.5ZM29.5 42.5H49.5C50.8807 42.5 52 43.6193 52 45V50C52 51.3807 50.8807 52.5 49.5 52.5H29.5C28.1193 52.5 27 51.3807 27 50V45C27 43.6193 28.1193 42.5 29.5 42.5Z" stroke="#727272" stroke-width="2.67" stroke-linecap="round" stroke-linejoin="round"/>
<path d="M62 40V57.5C62 58.8261 61.4732 60.0979 60.5355 61.0355C59.5979 61.9732 58.3261 62.5 57 62.5H22C20.6739 62.5 19.4021 61.9732 18.4645 61.0355C17.5268 60.0979 17 58.8261 17 57.5V22.5C17 21.1739 17.5268 19.9021 18.4645 18.9645C19.4021 18.0268 20.6739 17.5 22 17.5H49.5" stroke="#727272" stroke-width="2.67" stroke-linecap="round" stroke-linejoin="round"/>
<g clip-path="url(#clip0_17231_363)">
<path d="M60.5441 23.6456C60.0361 23.8221 59.572 24.1057 59.1833 24.4773C58.7946 24.8489 58.4904 25.2997 58.2913 25.7992C58.0921 26.2987 58.0027 26.8352 58.0291 27.3723C58.0556 27.9093 58.1972 28.4345 58.4444 28.912L59.9067 31.738C60.3737 32.6033 61.1619 33.2506 62.1015 33.5404C63.0411 33.8302 64.0569 33.7394 64.9302 33.2875C65.8035 32.8357 66.4644 32.0589 66.7705 31.1244C67.0766 30.19 67.0034 29.1728 66.5668 28.2918L65.7355 26.6738M61.0644 26.9591C61.5724 26.7827 62.0364 26.499 62.4251 26.1275C62.8138 25.7559 63.1181 25.3051 63.3172 24.8056C63.5163 24.3061 63.6057 23.7696 63.5793 23.2325C63.5529 22.6954 63.4113 22.1703 63.1641 21.6928L61.7017 18.8667C61.2347 18.0014 60.4465 17.3542 59.507 17.0644C58.5674 16.7745 57.5515 16.8653 56.6782 17.3172C55.805 17.7691 55.1441 18.5459 54.838 19.4803C54.5319 20.4147 54.605 21.432 55.0417 22.313L55.8752 23.9239" stroke="#727272" stroke-width="2.66667" stroke-linecap="round" stroke-linejoin="round"/>
</g>
<defs>
<clipPath id="clip0_17231_363">
<rect width="18" height="18" fill="white" transform="translate(72.1084 19.4531) rotate(107.64)"/>
</clipPath>
</defs>
</svg>
