<svg width="80" height="80" viewBox="0 0 80 80" fill="none" xmlns="http://www.w3.org/2000/svg">
<path d="M26.6674 56.6664L40.0008 69.9998M40.0008 69.9998L53.3341 56.6664M40.0008 69.9998V39.9998M69.6007 60.2998C72.4987 58.2619 74.672 55.3536 75.805 51.9969C76.9381 48.6403 76.9721 45.0098 75.9021 41.6325C74.832 38.2552 72.7136 35.3067 69.8543 33.215C66.995 31.1232 63.5435 29.997 60.0008 29.9998H55.8008C54.7982 26.0927 52.9224 22.4639 50.3145 19.3867C47.7066 16.3095 44.4346 13.864 40.7448 12.2343C37.055 10.6046 33.0436 9.8332 29.0125 9.97817C24.9814 10.1231 21.0358 11.1807 17.4726 13.0712C13.9094 14.9617 10.8215 17.6359 8.44138 20.8925C6.06125 24.1491 4.45093 27.9033 3.73162 31.8723C3.01232 35.8413 3.20279 39.9218 4.28869 43.8065C5.37458 47.6913 7.32762 51.2791 10.0008 54.2998" stroke="#1C851C" stroke-width="4" stroke-linecap="round" stroke-linejoin="round"/>
</svg>
