<svg width="48" height="48" viewBox="0 0 48 48" fill="none" xmlns="http://www.w3.org/2000/svg">
<rect width="48" height="48" rx="24" fill="#F1F1F1"/>
<g clip-path="url(#clip0_15629_24886)">
<path d="M23 16.0002H16C15.4696 16.0002 14.9609 16.2109 14.5858 16.586C14.2107 16.9611 14 17.4698 14 18.0002V32.0002C14 32.5307 14.2107 33.0394 14.5858 33.4144C14.9609 33.7895 15.4696 34.0002 16 34.0002H30C30.5304 34.0002 31.0391 33.7895 31.4142 33.4144C31.7893 33.0394 32 32.5307 32 32.0002V25.0002M30.5 14.5002C30.8978 14.1024 31.4374 13.8789 32 13.8789C32.5626 13.8789 33.1022 14.1024 33.5 14.5002C33.8978 14.8981 34.1213 15.4376 34.1213 16.0002C34.1213 16.5628 33.8978 17.1024 33.5 17.5002L24 27.0002L20 28.0002L21 24.0002L30.5 14.5002Z" stroke="#1C851C" stroke-width="2" stroke-linecap="round" stroke-linejoin="round"/>
</g>
<defs>
<clipPath id="clip0_15629_24886">
<rect width="24" height="24" fill="white" transform="translate(12 12)"/>
</clipPath>
</defs>
</svg>
