<svg width="16" height="16" viewBox="0 0 16 16" fill="none" xmlns="http://www.w3.org/2000/svg">
<g clip-path="url(#clip0_16430_2901)">
<path d="M14.6654 8.00016C14.6654 11.6821 11.6806 14.6668 7.9987 14.6668M14.6654 8.00016C14.6654 4.31826 11.6806 1.3335 7.9987 1.3335M14.6654 8.00016H1.33203M7.9987 14.6668C4.3168 14.6668 1.33203 11.6821 1.33203 8.00016M7.9987 14.6668C9.66622 12.8413 10.6139 10.4721 10.6654 8.00016C10.6139 5.52819 9.66622 3.15906 7.9987 1.3335M7.9987 14.6668C6.33118 12.8413 5.38353 10.4721 5.33203 8.00016C5.38353 5.52819 6.33118 3.15906 7.9987 1.3335M1.33203 8.00016C1.33203 4.31826 4.3168 1.3335 7.9987 1.3335" stroke="#898989" stroke-width="1.2" stroke-linecap="round" stroke-linejoin="round"/>
</g>
<defs>
<clipPath id="clip0_16430_2901">
<rect width="16" height="16" fill="white"/>
</clipPath>
</defs>
</svg>
