<svg width="134" height="76" viewBox="0 0 134 76" fill="none" xmlns="http://www.w3.org/2000/svg">
<path d="M36.5657 35.2925C17.4943 40.0826 14.9723 29.2494 14.1224 25.2948C8.95834 37.8536 9.40206 43.4805 26.4219 46.8191" stroke="#228B22" stroke-width="1.13333" stroke-linecap="round"/>
<path d="M21.9531 47.9053C22.9725 47.9054 23.659 48.6083 23.6592 49.3145C23.6592 50.0207 22.9726 50.7235 21.9531 50.7236C20.9335 50.7236 20.2461 50.0208 20.2461 49.3145C20.2463 48.6082 20.9336 47.9053 21.9531 47.9053Z" fill="#228B22" fill-opacity="0.266667" stroke="#228B22" stroke-width="1.13333"/>
<path d="M11.0918 37.6172C11.2774 38.915 11.5348 39.9286 11.9756 40.8135C12.4487 41.7632 13.126 42.5433 14.1143 43.3682C13.5088 44.1024 12.7576 45.2456 12.1465 46.6152C11.4932 48.0796 10.9928 49.8199 11.0107 51.6074L7.50488 53.1816L6.90527 53.4512L7.51172 53.7021L11.0645 55.1719C13.6693 63.852 21.4682 66.6711 29.1182 66.7246C32.9667 66.7515 36.8017 66.0819 39.9697 65.0957C41.5338 64.6088 42.9457 64.0401 44.1211 63.4355C32.3853 74.0819 19.4306 73.3231 11.5889 67.3076C7.39823 64.0929 4.65906 59.3745 4.31934 54.0654C3.98848 48.8938 5.93311 43.1293 11.0918 37.6172Z" fill="#F8C23D" stroke="#228B22" stroke-width="0.566666"/>
<path d="M45.0059 5.94482V32.5659C45.0058 34.5162 44.8377 36.7499 44.2578 38.52C43.8636 39.7231 43.3592 40.4964 42.7568 40.9292C41.9683 39.7317 41.214 38.7091 40.4824 37.7192C39.7377 36.7116 39.018 35.7365 38.2773 34.6079C38.8707 33.7041 39.1055 32.7137 39.1934 31.7515L39.2148 31.4741C39.2785 30.4956 39.2188 29.2773 39.2188 28.2798V9.95459H16.6768V5.94482H45.0059Z" fill="#074906" stroke="#074906" stroke-width="3.39999" stroke-linecap="round"/>
<path d="M45.0059 5.8042V32.4253C45.0058 34.3755 44.8377 36.6093 44.2578 38.3794C43.8636 39.5825 43.3592 40.3558 42.7568 40.7886C41.9683 39.5911 41.214 38.5685 40.4824 37.5786C39.7377 36.5709 39.018 35.5959 38.2773 34.4673C38.8707 33.5635 39.1055 32.573 39.1934 31.6108L39.2148 31.3335C39.2785 30.355 39.2188 29.1366 39.2188 28.1392V9.81396H16.6768V5.8042H45.0059Z" fill="#074906" stroke="#074906" stroke-width="3.39999" stroke-linecap="round"/>
<path d="M45.0059 5.73535V32.3564C45.0058 34.3067 44.8377 36.5405 44.2578 38.3105C43.8636 39.5137 43.3592 40.287 42.7568 40.7197C41.9683 39.5222 41.214 38.4997 40.4824 37.5098C39.7377 36.5021 39.018 35.5271 38.2773 34.3984C38.8707 33.4947 39.1055 32.5042 39.1934 31.542L39.2148 31.2646C39.2785 30.2861 39.2188 29.0678 39.2188 28.0703V9.74512H16.6768V5.73535H45.0059Z" fill="#074906" stroke="#074906" stroke-width="3.39999" stroke-linecap="round"/>
<path d="M45.0059 5.7002V32.3213C45.0058 34.2715 44.8377 36.5053 44.2578 38.2754C43.8636 39.4785 43.3592 40.2518 42.7568 40.6846C41.9683 39.4871 41.214 38.4645 40.4824 37.4746C39.7377 36.4669 39.018 35.4919 38.2773 34.3633C38.8707 33.4595 39.1055 32.469 39.1934 31.5068L39.2148 31.2295C39.2785 30.251 39.2188 29.0326 39.2188 28.0352V9.70996H16.6768V5.7002H45.0059Z" fill="#074906" stroke="#074906" stroke-width="3.39999" stroke-linecap="round"/>
<path d="M45.0059 7.16064V33.7817C45.0058 35.732 44.8377 37.9658 44.2578 39.7358C43.8636 40.939 43.3592 41.7122 42.7568 42.145C41.9683 40.9475 41.214 39.9249 40.4824 38.9351C39.7377 37.9274 39.018 36.9524 38.2773 35.8237C38.8707 34.92 39.1055 33.9295 39.1934 32.9673L39.2148 32.6899C39.2785 31.7114 39.2188 30.4931 39.2188 29.4956V11.1704H16.6768V7.16064H45.0059Z" fill="#074906" stroke="#074906" stroke-width="3.39999" stroke-linecap="round"/>
<path d="M45.0059 7.16064V33.7817C45.0058 35.732 44.8377 37.9658 44.2578 39.7358C43.8636 40.939 43.3592 41.7122 42.7568 42.145C41.9683 40.9475 41.214 39.9249 40.4824 38.9351C39.7377 37.9274 39.018 36.9524 38.2773 35.8237C38.8707 34.92 39.1055 33.9295 39.1934 32.9673L39.2148 32.6899C39.2785 31.7114 39.2188 30.4931 39.2188 29.4956V11.1704H16.6768V7.16064H45.0059Z" fill="#228B22" stroke="#228B22" stroke-width="3.39999" stroke-linecap="round"/>
<path d="M24.5925 28.3319C29.2585 28.1506 34.7109 29.2791 37.7533 32.9695L38.0405 33.3344L38.1135 33.4547C38.3404 33.9189 39.4603 36.2251 40.612 38.862C41.4665 40.8184 42.3294 42.9386 42.8627 44.6216C41.4292 42.5642 40.135 40.9782 38.6434 39.7667C36.825 38.2897 34.7325 37.3792 31.784 36.8145L31.7267 36.8043L31.6695 36.8166C28.2009 37.5885 24.7802 36.9102 22.0599 35.6638C20.7005 35.041 19.5218 34.2785 18.6045 33.4918C17.7989 32.8007 17.206 32.1008 16.865 31.4698L16.7347 31.2034C16.6339 30.9743 16.6816 30.7145 16.9864 30.3998C17.2969 30.0795 17.8339 29.7535 18.5696 29.4565C20.0348 28.8649 22.1924 28.4252 24.5925 28.3319Z" fill="#F8C23D" stroke="#228B22" stroke-width="0.566666"/>
<path d="M46.7948 49.3363C48.9963 47.7141 50.1001 46.4949 51.6002 43.213C53.7156 49.2828 53.1151 52.5221 48.4191 57.9666" stroke="#228B22" stroke-width="1.7" stroke-linecap="round"/>
<path d="M61.9502 50.0513V55.9712H72.2139V50.0513H76.9688V71.6206H72.2139V60.3726H61.9502V71.6206H57.1953V50.0513H61.9502ZM84.4785 50.0513V71.6206H79.7236V50.0513H84.4785ZM107.606 50.0513V57.2837C107.606 60.0879 105.889 62.4347 102.982 63.5474L107.544 70.9731L107.941 71.6206H102.438L102.314 71.4185L97.9766 64.3892L91.9873 64.9243V71.6206H87.2324V50.0513H107.606ZM130.428 50.0513V57.2837C130.428 60.9655 127.493 63.8199 122.83 64.2183L122.831 64.2192L114.809 64.9253V71.6206H110.054V50.0513H130.428ZM91.9873 60.519L99.7842 59.8208L100.079 59.7876C100.763 59.6946 101.42 59.4884 101.918 59.1235C102.466 58.7226 102.852 58.1104 102.852 57.1362V54.4536H91.9873V60.519ZM114.809 60.519L122.605 59.8208L122.899 59.7876C123.583 59.6947 124.241 59.4885 124.739 59.1235C125.287 58.7226 125.673 58.1103 125.673 57.1362V54.4536H114.809V60.519ZM61.6504 18.3384V29.8628C61.6504 31.8604 62.1923 33.3733 63.1318 34.3833C64.0676 35.3892 65.4469 35.9497 67.2324 35.9497C69.1775 35.9497 70.5486 35.3912 71.4404 34.3999C72.3396 33.4002 72.8144 31.8906 72.8145 29.8628V18.3384H77.5693V29.8628C77.5693 32.8218 76.7609 35.4858 75.04 37.4155C73.3122 39.3531 70.71 40.4995 67.2324 40.4995C63.7549 40.4995 61.1527 39.3531 59.4248 37.4155C57.704 35.4858 56.8955 32.8218 56.8955 29.8628V18.3384H61.6504ZM83.79 18.3384L83.917 18.4849L95.335 31.6802V18.3384H100.09V39.9077H96.3174L96.1904 39.7603L84.7715 26.562V39.9077H80.0166V18.3384H83.79Z" fill="#074906" stroke="#074906" stroke-width="0.849999"/>
<path d="M60.6494 50.0513V55.9712H70.9131V50.0513H75.668V71.6206H70.9131V60.3726H60.6494V71.6206H55.8945V50.0513H60.6494ZM83.1777 50.0513V71.6206H78.4229V50.0513H83.1777ZM106.306 50.0513V57.2837C106.306 60.0879 104.588 62.4347 101.682 63.5474L106.243 70.9731L106.641 71.6206H101.138L101.014 71.4185L96.6758 64.3892L90.6865 64.9243V71.6206H85.9316V50.0513H106.306ZM129.127 50.0513V57.2837C129.127 60.9655 126.192 63.8199 121.529 64.2183L121.53 64.2192L113.508 64.9253V71.6206H108.753V50.0513H129.127ZM90.6865 60.519L98.4834 59.8208L98.7783 59.7876C99.462 59.6946 100.119 59.4884 100.617 59.1235C101.165 58.7226 101.551 58.1104 101.551 57.1362V54.4536H90.6865V60.519ZM113.508 60.519L121.305 59.8208L121.599 59.7876C122.283 59.6947 122.94 59.4885 123.438 59.1235C123.986 58.7226 124.372 58.1103 124.372 57.1362V54.4536H113.508V60.519ZM60.3496 18.3384V29.8628C60.3496 31.8604 60.8915 33.3733 61.8311 34.3833C62.7668 35.3892 64.1461 35.9497 65.9316 35.9497C67.8767 35.9497 69.2478 35.3912 70.1396 34.3999C71.0388 33.4002 71.5137 31.8906 71.5137 29.8628V18.3384H76.2686V29.8628C76.2685 32.8218 75.4601 35.4858 73.7393 37.4155C72.0114 39.3531 69.4092 40.4995 65.9316 40.4995C62.4541 40.4995 59.8519 39.3531 58.124 37.4155C56.4032 35.4858 55.5947 32.8218 55.5947 29.8628V18.3384H60.3496ZM82.4893 18.3384L82.6162 18.4849L94.0342 31.6802V18.3384H98.7891V39.9077H95.0166L94.8896 39.7603L83.4707 26.562V39.9077H78.7158V18.3384H82.4893Z" fill="#074906" stroke="#074906" stroke-width="0.849999"/>
<path d="M60.6494 50.0513V55.9712H70.9131V50.0513H75.668V71.6206H70.9131V60.3726H60.6494V71.6206H55.8945V50.0513H60.6494ZM83.1777 50.0513V71.6206H78.4229V50.0513H83.1777ZM106.306 50.0513V57.2837C106.306 60.0879 104.588 62.4347 101.682 63.5474L106.243 70.9731L106.641 71.6206H101.138L101.014 71.4185L96.6758 64.3892L90.6865 64.9243V71.6206H85.9316V50.0513H106.306ZM129.127 50.0513V57.2837C129.127 60.9655 126.192 63.8199 121.529 64.2183L121.53 64.2192L113.508 64.9253V71.6206H108.753V50.0513H129.127ZM90.6865 60.519L98.4834 59.8208L98.7783 59.7876C99.462 59.6946 100.119 59.4884 100.617 59.1235C101.165 58.7226 101.551 58.1104 101.551 57.1362V54.4536H90.6865V60.519ZM113.508 60.519L121.305 59.8208L121.599 59.7876C122.283 59.6947 122.94 59.4885 123.438 59.1235C123.986 58.7226 124.372 58.1103 124.372 57.1362V54.4536H113.508V60.519ZM60.3496 18.3384V29.8628C60.3496 31.8604 60.8915 33.3733 61.8311 34.3833C62.7668 35.3892 64.1461 35.9497 65.9316 35.9497C67.8767 35.9497 69.2478 35.3912 70.1396 34.3999C71.0388 33.4002 71.5137 31.8906 71.5137 29.8628V18.3384H76.2686V29.8628C76.2685 32.8218 75.4601 35.4858 73.7393 37.4155C72.0114 39.3531 69.4092 40.4995 65.9316 40.4995C62.4541 40.4995 59.8519 39.3531 58.124 37.4155C56.4032 35.4858 55.5947 32.8218 55.5947 29.8628V18.3384H60.3496ZM82.4893 18.3384L82.6162 18.4849L94.0342 31.6802V18.3384H98.7891V39.9077H95.0166L94.8896 39.7603L83.4707 26.562V39.9077H78.7158V18.3384H82.4893Z" fill="#074906" stroke="#074906" stroke-width="0.849999"/>
<path d="M60.6494 50.0513V55.9712H70.9131V50.0513H75.668V71.6206H70.9131V60.3726H60.6494V71.6206H55.8945V50.0513H60.6494ZM83.1777 50.0513V71.6206H78.4229V50.0513H83.1777ZM106.306 50.0513V57.2837C106.306 60.0879 104.588 62.4347 101.682 63.5474L106.243 70.9731L106.641 71.6206H101.138L101.014 71.4185L96.6758 64.3892L90.6865 64.9243V71.6206H85.9316V50.0513H106.306ZM129.127 50.0513V57.2837C129.127 60.9655 126.192 63.8199 121.529 64.2183L121.53 64.2192L113.508 64.9253V71.6206H108.753V50.0513H129.127ZM90.6865 60.519L98.4834 59.8208L98.7783 59.7876C99.462 59.6946 100.119 59.4884 100.617 59.1235C101.165 58.7226 101.551 58.1104 101.551 57.1362V54.4536H90.6865V60.519ZM113.508 60.519L121.305 59.8208L121.599 59.7876C122.283 59.6947 122.94 59.4885 123.438 59.1235C123.986 58.7226 124.372 58.1103 124.372 57.1362V54.4536H113.508V60.519ZM60.3496 18.3384V29.8628C60.3496 31.8604 60.8915 33.3733 61.8311 34.3833C62.7668 35.3892 64.1461 35.9497 65.9316 35.9497C67.8767 35.9497 69.2478 35.3912 70.1396 34.3999C71.0388 33.4002 71.5137 31.8906 71.5137 29.8628V18.3384H76.2686V29.8628C76.2685 32.8218 75.4601 35.4858 73.7393 37.4155C72.0114 39.3531 69.4092 40.4995 65.9316 40.4995C62.4541 40.4995 59.8519 39.3531 58.124 37.4155C56.4032 35.4858 55.5947 32.8218 55.5947 29.8628V18.3384H60.3496ZM82.4893 18.3384L82.6162 18.4849L94.0342 31.6802V18.3384H98.7891V39.9077H95.0166L94.8896 39.7603L83.4707 26.562V39.9077H78.7158V18.3384H82.4893Z" fill="#074906" stroke="#074906" stroke-width="0.849999"/>
<path d="M60.6494 49.9741V55.8794H70.9131V49.9741H75.668V71.4927H70.9131V60.272H60.6494V71.4927H55.8945V49.9741H60.6494ZM83.1777 49.9741V71.4927H78.4229V49.9741H83.1777ZM106.306 49.9741V57.1899C106.306 59.988 104.588 62.329 101.683 63.439L106.242 70.8442L106.642 71.4927H101.139L101.014 71.2905L96.6748 64.2788L90.6865 64.812V71.4927H85.9316V49.9741H106.306ZM129.127 49.9741V57.1899C129.127 60.8642 126.191 63.7105 121.529 64.1079L121.53 64.1089L113.508 64.813V71.4927H108.753V49.9741H129.127ZM90.6865 60.4155L98.4834 59.7192L98.7783 59.686C99.4621 59.5933 100.119 59.3878 100.617 59.0239C101.165 58.624 101.551 58.0136 101.551 57.0425V54.3667H90.6865V60.4155ZM113.508 60.4155L121.305 59.7192L121.6 59.686C122.283 59.5933 122.94 59.3879 123.438 59.0239C123.986 58.624 124.372 58.0136 124.372 57.0425V54.3667H113.508V60.4155ZM60.3496 18.3384V29.8354C60.3496 31.8277 60.8917 33.3369 61.8311 34.3442C62.7667 35.3475 64.1459 35.9067 65.9316 35.9067C67.8773 35.9067 69.2489 35.3489 70.1406 34.3599C71.0393 33.3629 71.5137 31.8577 71.5137 29.8354V18.3384H76.2686V29.8354C76.2686 32.7877 75.4604 35.4463 73.7393 37.3716C72.0113 39.3045 69.4089 40.4478 65.9316 40.4478C62.4544 40.4477 59.852 39.3045 58.124 37.3716C56.4029 35.4463 55.5947 32.7877 55.5947 29.8354V18.3384H60.3496ZM82.4883 18.3384L82.6162 18.4849L94.0342 31.6499V18.3384H98.7891V39.8569H95.0166L94.8896 39.7104L83.4707 26.5444V39.8569H78.7158V18.3384H82.4883Z" fill="#074906" stroke="#074906" stroke-width="0.849999"/>
<path d="M83.1777 50.0513V71.6206H78.4229V50.0513H83.1777ZM106.306 50.0513V57.2837C106.306 60.0879 104.588 62.4347 101.682 63.5474L106.243 70.9731L106.641 71.6206H101.138L101.014 71.4185L96.6758 64.3892L90.6865 64.9243V71.6206H85.9316V50.0513H106.306ZM129.127 50.0513V57.2837C129.127 60.9655 126.192 63.8199 121.529 64.2183L121.53 64.2192L113.508 64.9253V71.6206H108.753V50.0513H129.127ZM90.6865 60.519L98.4834 59.8208L98.7783 59.7876C99.462 59.6946 100.119 59.4884 100.617 59.1235C101.165 58.7226 101.551 58.1104 101.551 57.1362V54.4536H90.6865V60.519ZM113.508 60.519L121.305 59.8208L121.599 59.7876C122.283 59.6947 122.94 59.4885 123.438 59.1235C123.986 58.7226 124.372 58.1103 124.372 57.1362V54.4536H113.508V60.519ZM60.3496 18.3384V29.8628C60.3496 31.8604 60.8915 33.3733 61.8311 34.3833C62.7668 35.3892 64.1461 35.9497 65.9316 35.9497C67.8767 35.9497 69.2478 35.3912 70.1396 34.3999C71.0388 33.4002 71.5137 31.8906 71.5137 29.8628V18.3384H76.2686V29.8628C76.2685 32.8218 75.4601 35.4858 73.7393 37.4155C72.0114 39.3531 69.4092 40.4995 65.9316 40.4995C62.4541 40.4995 59.8519 39.3531 58.124 37.4155C56.4032 35.4858 55.5947 32.8218 55.5947 29.8628V18.3384H60.3496ZM82.4893 18.3384L82.6162 18.4849L94.0342 31.6802V18.3384H98.7891V39.9077H95.0166L94.8896 39.7603L83.4707 26.562V39.9077H78.7158V18.3384H82.4893Z" fill="#228B22" stroke="#228B22" stroke-width="0.849999"/>
<path d="M60.3496 50.856V56.7759H70.6133V50.856H75.3682V72.4253H70.6133V61.1772H60.3496V72.4253H55.5947V50.856H60.3496Z" fill="#228B22" stroke="#228B22" stroke-width="0.849999"/>
</svg>
