<svg width="33" height="35" viewBox="0 0 33 35" fill="none" xmlns="http://www.w3.org/2000/svg">
<path d="M25.3059 9.56804C31.4885 4.37514 33.8539 1.74343 32.7298 1.32048C32.1443 1.10901 31.8867 1.15598 30.8562 1.64942C28.8656 2.6363 21.629 8.83963 21.629 9.56804C21.629 10.5784 24.0646 10.6019 25.3059 9.56804Z" fill="#4F4F4F"/>
<path d="M9.07634 9.75602C9.84918 9.23908 9.80234 9.14509 6.80468 5.87898C5.21217 4.11658 3.90079 3.01221 2.9406 2.58926C1.62913 2.00183 0.996784 2.80079 1.51201 3.45871C5.91475 9.14509 7.74145 10.6489 9.07634 9.75602Z" fill="#4F4F4F"/>
<path d="M29.9194 17.4161C28.4909 16.9932 21.1843 14.6669 20.6457 14.4555C20.3881 14.3615 20.2007 13.8915 20.107 13.0926C19.3342 7.12434 18.1162 0.99143 17.5775 0.310012C17.1794 -0.206926 15.8211 -0.0424459 15.4464 0.544984C15.0717 1.13241 13.3386 7.07734 12.3082 11.4008L11.6293 14.2205C-1.67294 18.45 -2.39898 18.356 3.61976 20.2123L8.93606 21.8571C11.9571 22.797 12.0272 22.8202 12.1911 23.5721C12.4253 24.653 13.9475 29.9166 14.533 32.4308C15.7742 37.8352 18.3037 34.4986 20.5286 24.4418L21.0438 22.139C21.3248 22.092 23.1045 21.9276 30.786 20.2593C32.5424 19.8598 32.0272 18.027 29.9194 17.4161ZM26.5939 18.5675C26.4066 18.7319 21.2778 19.9773 20.2707 19.9773C19.0529 19.9773 18.7719 20.5647 17.3902 26.0866C16.4768 29.7286 16.4068 29.7989 15.8916 27.6841C15.2593 25.029 13.971 21.9276 13.807 21.1991C13.6665 20.5412 12.355 20.0713 7.27306 18.8494C4.72049 18.2385 4.32236 18.027 5.28243 17.7451C6.47681 17.3926 12.2145 15.5128 12.8703 15.5128C13.5026 15.5128 14.0412 15.0429 14.2286 14.338L16.0553 7.19483C16.3831 5.94948 16.3834 5.94948 17.2967 10.8134C18.3506 16.2882 18.2333 16.053 19.9194 16.4055C22.0272 16.8519 26.8047 18.3795 26.5939 18.5675Z" fill="#4F4F4F"/>
<path d="M22.3316 24.8177C22.3316 25.3347 28.5143 31.6084 29.3808 31.9609C31.2075 32.7128 31.6759 31.7256 30.2239 30.1513C26.3129 25.8514 22.3316 23.1729 22.3316 24.8177Z" fill="#4F4F4F"/>
<path d="M4.29894 26.3215C-0.197552 29.3762 -0.712799 30.0811 1.53545 30.0811C2.63615 30.0811 9.59157 25.2407 9.38079 24.6062C9.05292 23.6194 7.48384 24.1363 4.29894 26.3215Z" fill="#4F4F4F"/>
</svg>
