<svg viewBox="0 0 20 20" fill="none" xmlns="http://www.w3.org/2000/svg">
<path d="M9.1665 3.33417H3.33317C2.89114 3.33417 2.46722 3.50977 2.15466 3.82233C1.8421 4.13489 1.6665 4.55881 1.6665 5.00084V16.6675C1.6665 17.1095 1.8421 17.5335 2.15466 17.846C2.46722 18.1586 2.89114 18.3342 3.33317 18.3342H14.9998C15.4419 18.3342 15.8658 18.1586 16.1783 17.846C16.4909 17.5335 16.6665 17.1095 16.6665 16.6675V10.8342M15.4165 2.08417C15.748 1.75265 16.1977 1.56641 16.6665 1.56641C17.1353 1.56641 17.585 1.75265 17.9165 2.08417C18.248 2.41569 18.4343 2.86533 18.4343 3.33417C18.4343 3.80301 18.248 4.25265 17.9165 4.58417L9.99984 12.5008L6.6665 13.3342L7.49984 10.0008L15.4165 2.08417Z" stroke="currentColor" stroke-width="1.5" stroke-linecap="round" stroke-linejoin="round"/>
</svg>
