<svg viewBox="0 0 24 24" fill="none" xmlns="http://www.w3.org/2000/svg">
<g clip-path="url(#clip0_9474_95407)">
<g filter="url(#filter0_d_9474_95407)">
<path d="M12 2V6M12 18V22M4.93 4.93L7.76 7.76M16.24 16.24L19.07 19.07M2 12H6M18 12H22M4.93 19.07L7.76 16.24M16.24 7.76L19.07 4.93" stroke="#A0F4D8" stroke-width="2" stroke-linecap="round" stroke-linejoin="round"/>
</g>
<path d="M12 2V6M12 18V22M4.93 4.93L7.76 7.76M16.24 16.24L19.07 19.07M2 12H6M18 12H22M4.93 19.07L7.76 16.24M16.24 7.76L19.07 4.93" stroke="#4FEBB6" stroke-width="1.5" stroke-linecap="round" stroke-linejoin="round"/>
<path d="M12 2V6M12 18V22M4.93 4.93L7.76 7.76M16.24 16.24L19.07 19.07M2 12H6M18 12H22M16.24 7.76L19.07 4.93" stroke="#00D18B" stroke-width="1.5" stroke-linecap="round" stroke-linejoin="round"/>
<path d="M12 2V6M4.93 4.93L7.76 7.76M16.24 16.24L19.07 19.07M2 12H6M18 12H22M16.24 7.76L19.07 4.93" stroke="#069867" stroke-width="1.5" stroke-linecap="round" stroke-linejoin="round"/>
<path d="M12 2V6M4.93 4.93L7.76 7.76M2 12H6M18 12H22M16.24 7.76L19.07 4.93" stroke="#0C6043" stroke-width="1.5" stroke-linecap="round" stroke-linejoin="round"/>
<path d="M12 2V6M4.93 4.93L7.76 7.76M2 12H6M16.24 7.76L19.07 4.93" stroke="#0F4130" stroke-width="1.5" stroke-linecap="round" stroke-linejoin="round"/>
<path d="M12 2V6M4.93 4.93L7.76 7.76M2 12H6" stroke="#A0F4D8" stroke-width="1.5" stroke-linecap="round" stroke-linejoin="round"/>
<path d="M4.93 4.92999L7.76 7.75999M2 12H6" stroke="#A0F4D8" stroke-width="1.5" stroke-linecap="round" stroke-linejoin="round"/>
<path d="M2 12H6" stroke="#88F2CE" stroke-width="1.5" stroke-linecap="round" stroke-linejoin="round"/>
</g>
<defs>
<filter id="filter0_d_9474_95407" x="-1" y="-1" width="26" height="26" filterUnits="userSpaceOnUse" color-interpolation-filters="sRGB">
<feFlood flood-opacity="0" result="BackgroundImageFix"/>
<feColorMatrix in="SourceAlpha" type="matrix" values="0 0 0 0 0 0 0 0 0 0 0 0 0 0 0 0 0 0 127 0" result="hardAlpha"/>
<feOffset/>
<feGaussianBlur stdDeviation="1"/>
<feComposite in2="hardAlpha" operator="out"/>
<feColorMatrix type="matrix" values="0 0 0 0 0 0 0 0 0 0 0 0 0 0 0 0 0 0 0.25 0"/>
<feBlend mode="normal" in2="BackgroundImageFix" result="effect1_dropShadow_9474_95407"/>
<feBlend mode="normal" in="SourceGraphic" in2="effect1_dropShadow_9474_95407" result="shape"/>
</filter>
<clipPath id="clip0_9474_95407">
<rect width="24" height="24" fill="white"/>
</clipPath>
</defs>
</svg>
